<?xml version="1.0" encoding="UTF-8" standalone="no"?>
<!DOCTYPE svg PUBLIC "-//W3C//DTD SVG 1.1//EN"
 "http://www.w3.org/Graphics/SVG/1.1/DTD/svg11.dtd">
<!-- Generated by graphviz version 14.1.2 (20260124.0452)
 -->
<!-- Title: G Pages: 1 -->
<svg width="1918pt" height="1098pt"
 viewBox="0.00 0.00 1918.00 1098.00" xmlns="http://www.w3.org/2000/svg" xmlns:xlink="http://www.w3.org/1999/xlink">
<g id="graph0" class="graph" transform="scale(1 1) rotate(0) translate(21.6 1076.44)">
<title>G</title>
<polygon fill="#111111" stroke="none" points="-21.6,21.6 -21.6,-1076.44 1896.85,-1076.44 1896.85,21.6 -21.6,21.6"/>
<!-- App.tsx -->
<g id="node1" class="node">
<title>App.tsx</title>
<path fill="none" stroke="#c6c5fe" d="M182.71,-549.84C182.71,-549.84 137.54,-549.84 137.54,-549.84 133.58,-549.84 129.62,-545.88 129.62,-541.92 129.62,-541.92 129.62,-534.01 129.62,-534.01 129.62,-530.05 133.58,-526.09 137.54,-526.09 137.54,-526.09 182.71,-526.09 182.71,-526.09 186.67,-526.09 190.62,-530.05 190.62,-534.01 190.62,-534.01 190.62,-541.92 190.62,-541.92 190.62,-545.88 186.67,-549.84 182.71,-549.84"/>
<text xml:space="preserve" text-anchor="middle" x="160.12" y="-532.54" font-family="Arial" font-size="14.00" fill="#c6c5fe">App.tsx</text>
</g>
<!-- ui/DailyRecordFormV110.tsx -->
<g id="node2" class="node">
<title>ui/DailyRecordFormV110.tsx</title>
<path fill="none" stroke="#c6c5fe" d="M417.33,-245.84C417.33,-245.84 245.42,-245.84 245.42,-245.84 241.46,-245.84 237.5,-241.88 237.5,-237.92 237.5,-237.92 237.5,-230.01 237.5,-230.01 237.5,-226.05 241.46,-222.09 245.42,-222.09 245.42,-222.09 417.33,-222.09 417.33,-222.09 421.29,-222.09 425.25,-226.05 425.25,-230.01 425.25,-230.01 425.25,-237.92 425.25,-237.92 425.25,-241.88 421.29,-245.84 417.33,-245.84"/>
<text xml:space="preserve" text-anchor="middle" x="331.38" y="-228.54" font-family="Arial" font-size="14.00" fill="#c6c5fe">ui/DailyRecordFormV110.tsx</text>
</g>
<!-- App.tsx&#45;&gt;ui/DailyRecordFormV110.tsx -->
<g id="edge1" class="edge">
<title>App.tsx&#45;&gt;ui/DailyRecordFormV110.tsx</title>
<path fill="none" stroke="#757575" d="M185.97,-525.68C189.7,-523.14 193.29,-520.23 196.25,-516.97 269.34,-436.48 310.08,-309.06 324.42,-257.14"/>
<polygon fill="#757575" stroke="#757575" points="327.76,-258.19 326.97,-247.63 320.99,-256.38 327.76,-258.19"/>
</g>
<!-- app/dailyRecordService.ts -->
<g id="node4" class="node">
<title>app/dailyRecordService.ts</title>
<path fill="none" stroke="#c6c5fe" d="M731.83,-652.84C731.83,-652.84 574.92,-652.84 574.92,-652.84 570.96,-652.84 567,-648.88 567,-644.92 567,-644.92 567,-637.01 567,-637.01 567,-633.05 570.96,-629.09 574.92,-629.09 574.92,-629.09 731.83,-629.09 731.83,-629.09 735.79,-629.09 739.75,-633.05 739.75,-637.01 739.75,-637.01 739.75,-644.92 739.75,-644.92 739.75,-648.88 735.79,-652.84 731.83,-652.84"/>
<text xml:space="preserve" text-anchor="middle" x="653.38" y="-635.54" font-family="Arial" font-size="14.00" fill="#c6c5fe">app/dailyRecordService.ts</text>
</g>
<!-- ui/DailyRecordFormV110.tsx&#45;&gt;app/dailyRecordService.ts -->
<g id="edge48" class="edge">
<title>ui/DailyRecordFormV110.tsx&#45;&gt;app/dailyRecordService.ts</title>
<path fill="none" stroke="#757575" d="M341.95,-246.15C387.04,-303.49 578.34,-546.8 635.91,-620.03"/>
<polygon fill="#757575" stroke="#757575" points="632.97,-621.95 641.9,-627.64 638.47,-617.62 632.97,-621.95"/>
</g>
<!-- domain/type.ts -->
<g id="node5" class="node">
<title>domain/type.ts</title>
<path fill="none" stroke="#cfffac" d="M1814.83,-498.84C1814.83,-498.84 1726.17,-498.84 1726.17,-498.84 1722.21,-498.84 1718.25,-494.88 1718.25,-490.92 1718.25,-490.92 1718.25,-483.01 1718.25,-483.01 1718.25,-479.05 1722.21,-475.09 1726.17,-475.09 1726.17,-475.09 1814.83,-475.09 1814.83,-475.09 1818.79,-475.09 1822.75,-479.05 1822.75,-483.01 1822.75,-483.01 1822.75,-490.92 1822.75,-490.92 1822.75,-494.88 1818.79,-498.84 1814.83,-498.84"/>
<text xml:space="preserve" text-anchor="middle" x="1770.5" y="-481.54" font-family="Arial" font-size="14.00" fill="#cfffac">domain/type.ts</text>
</g>
<!-- ui/DailyRecordFormV110.tsx&#45;&gt;domain/type.ts -->
<g id="edge50" class="edge">
<title>ui/DailyRecordFormV110.tsx&#45;&gt;domain/type.ts</title>
<path fill="none" stroke="#757575" d="M362.38,-221.68C389.16,-211.42 429.72,-197.59 466.5,-191.97 691.36,-157.58 1529.57,-134.6 1629.75,-197.97 1725.85,-258.75 1757.54,-406.22 1766.44,-463.59"/>
<polygon fill="#757575" stroke="#757575" points="1762.94,-463.8 1767.83,-473.19 1769.86,-462.79 1762.94,-463.8"/>
</g>
<!-- domain/report/DailyRecordReportView.tsx -->
<g id="node19" class="node">
<title>domain/report/DailyRecordReportView.tsx</title>
<path fill="none" stroke="#c6c5fe" d="M1187.71,-734.84C1187.71,-734.84 936.29,-734.84 936.29,-734.84 932.33,-734.84 928.38,-730.88 928.38,-726.92 928.38,-726.92 928.38,-719.01 928.38,-719.01 928.38,-715.05 932.33,-711.09 936.29,-711.09 936.29,-711.09 1187.71,-711.09 1187.71,-711.09 1191.67,-711.09 1195.62,-715.05 1195.62,-719.01 1195.62,-719.01 1195.62,-726.92 1195.62,-726.92 1195.62,-730.88 1191.67,-734.84 1187.71,-734.84"/>
<text xml:space="preserve" text-anchor="middle" x="1062" y="-717.54" font-family="Arial" font-size="14.00" fill="#c6c5fe">domain/report/DailyRecordReportView.tsx</text>
</g>
<!-- ui/DailyRecordFormV110.tsx&#45;&gt;domain/report/DailyRecordReportView.tsx -->
<g id="edge49" class="edge">
<title>ui/DailyRecordFormV110.tsx&#45;&gt;domain/report/DailyRecordReportView.tsx</title>
<path fill="none" stroke="#757575" d="M331.84,-246.02C330.02,-303.41 330.48,-550.92 466.5,-661.97 619.88,-787.19 874.97,-759.61 994.88,-737.46"/>
<polygon fill="#757575" stroke="#757575" points="995.39,-740.92 1004.57,-735.62 994.09,-734.05 995.39,-740.92"/>
</g>
<!-- ui/exercise/ExerciseSessionsEditor.tsx -->
<g id="node29" class="node">
<title>ui/exercise/ExerciseSessionsEditor.tsx</title>
<path fill="none" stroke="#c6c5fe" d="M768.58,-144.84C768.58,-144.84 538.17,-144.84 538.17,-144.84 534.21,-144.84 530.25,-140.88 530.25,-136.92 530.25,-136.92 530.25,-129.01 530.25,-129.01 530.25,-125.05 534.21,-121.09 538.17,-121.09 538.17,-121.09 768.58,-121.09 768.58,-121.09 772.54,-121.09 776.5,-125.05 776.5,-129.01 776.5,-129.01 776.5,-136.92 776.5,-136.92 776.5,-140.88 772.54,-144.84 768.58,-144.84"/>
<text xml:space="preserve" text-anchor="middle" x="653.38" y="-127.54" font-family="Arial" font-size="14.00" fill="#c6c5fe">ui/exercise/ExerciseSessionsEditor.tsx</text>
</g>
<!-- ui/DailyRecordFormV110.tsx&#45;&gt;ui/exercise/ExerciseSessionsEditor.tsx -->
<g id="edge51" class="edge">
<title>ui/DailyRecordFormV110.tsx&#45;&gt;ui/exercise/ExerciseSessionsEditor.tsx</title>
<path fill="none" stroke="#757575" d="M349.19,-221.82C373.7,-204.79 421.24,-174.19 466.5,-158.97 483.12,-153.38 500.98,-148.99 518.8,-145.54"/>
<polygon fill="#757575" stroke="#757575" points="519.19,-149.03 528.4,-143.79 517.93,-142.14 519.19,-149.03"/>
</g>
<!-- ui/meal/MealEditor.tsx -->
<g id="node30" class="node">
<title>ui/meal/MealEditor.tsx</title>
<path fill="none" stroke="#c6c5fe" d="M720.21,-102.84C720.21,-102.84 586.54,-102.84 586.54,-102.84 582.58,-102.84 578.62,-98.88 578.62,-94.92 578.62,-94.92 578.62,-87.01 578.62,-87.01 578.62,-83.05 582.58,-79.09 586.54,-79.09 586.54,-79.09 720.21,-79.09 720.21,-79.09 724.17,-79.09 728.12,-83.05 728.12,-87.01 728.12,-87.01 728.12,-94.92 728.12,-94.92 728.12,-98.88 724.17,-102.84 720.21,-102.84"/>
<text xml:space="preserve" text-anchor="middle" x="653.38" y="-85.54" font-family="Arial" font-size="14.00" fill="#c6c5fe">ui/meal/MealEditor.tsx</text>
</g>
<!-- ui/DailyRecordFormV110.tsx&#45;&gt;ui/meal/MealEditor.tsx -->
<g id="edge52" class="edge">
<title>ui/DailyRecordFormV110.tsx&#45;&gt;ui/meal/MealEditor.tsx</title>
<path fill="none" stroke="#757575" d="M341.17,-221.98C360.54,-196.6 409.73,-137.68 466.5,-111.97 497.59,-97.88 534.49,-91.82 567.18,-89.57"/>
<polygon fill="#757575" stroke="#757575" points="567.25,-93.08 577.04,-89.02 566.86,-86.09 567.25,-93.08"/>
</g>
<!-- ui/weights/WeightEditor.tsx -->
<g id="node31" class="node">
<title>ui/weights/WeightEditor.tsx</title>
<path fill="none" stroke="#c6c5fe" d="M734.08,-266.84C734.08,-266.84 572.67,-266.84 572.67,-266.84 568.71,-266.84 564.75,-262.88 564.75,-258.92 564.75,-258.92 564.75,-251.01 564.75,-251.01 564.75,-247.05 568.71,-243.09 572.67,-243.09 572.67,-243.09 734.08,-243.09 734.08,-243.09 738.04,-243.09 742,-247.05 742,-251.01 742,-251.01 742,-258.92 742,-258.92 742,-262.88 738.04,-266.84 734.08,-266.84"/>
<text xml:space="preserve" text-anchor="middle" x="653.38" y="-249.54" font-family="Arial" font-size="14.00" fill="#c6c5fe">ui/weights/WeightEditor.tsx</text>
</g>
<!-- ui/DailyRecordFormV110.tsx&#45;&gt;ui/weights/WeightEditor.tsx -->
<g id="edge53" class="edge">
<title>ui/DailyRecordFormV110.tsx&#45;&gt;ui/weights/WeightEditor.tsx</title>
<path fill="none" stroke="#757575" d="M425.36,-240.07C465.42,-242.7 512.32,-245.78 553.06,-248.45"/>
<polygon fill="#757575" stroke="#757575" points="552.66,-251.93 562.87,-249.09 553.12,-244.95 552.66,-251.93"/>
</g>
<!-- ui/wellness/WellnessEditor.tsx -->
<g id="node32" class="node">
<title>ui/wellness/WellnessEditor.tsx</title>
<path fill="none" stroke="#c6c5fe" d="M743.46,-224.84C743.46,-224.84 563.29,-224.84 563.29,-224.84 559.33,-224.84 555.38,-220.88 555.38,-216.92 555.38,-216.92 555.38,-209.01 555.38,-209.01 555.38,-205.05 559.33,-201.09 563.29,-201.09 563.29,-201.09 743.46,-201.09 743.46,-201.09 747.42,-201.09 751.38,-205.05 751.38,-209.01 751.38,-209.01 751.38,-216.92 751.38,-216.92 751.38,-220.88 747.42,-224.84 743.46,-224.84"/>
<text xml:space="preserve" text-anchor="middle" x="653.38" y="-207.54" font-family="Arial" font-size="14.00" fill="#c6c5fe">ui/wellness/WellnessEditor.tsx</text>
</g>
<!-- ui/DailyRecordFormV110.tsx&#45;&gt;ui/wellness/WellnessEditor.tsx -->
<g id="edge54" class="edge">
<title>ui/DailyRecordFormV110.tsx&#45;&gt;ui/wellness/WellnessEditor.tsx</title>
<path fill="none" stroke="#757575" d="M425.36,-227.86C462.4,-225.43 505.28,-222.62 543.73,-220.1"/>
<polygon fill="#757575" stroke="#757575" points="543.72,-223.6 553.47,-219.46 543.26,-216.62 543.72,-223.6"/>
</g>
<!-- app/dailyRecordService.test.ts -->
<g id="node3" class="node">
<title>app/dailyRecordService.test.ts</title>
<path fill="none" stroke="#c6c5fe" d="M422.58,-752.84C422.58,-752.84 240.17,-752.84 240.17,-752.84 236.21,-752.84 232.25,-748.88 232.25,-744.92 232.25,-744.92 232.25,-737.01 232.25,-737.01 232.25,-733.05 236.21,-729.09 240.17,-729.09 240.17,-729.09 422.58,-729.09 422.58,-729.09 426.54,-729.09 430.5,-733.05 430.5,-737.01 430.5,-737.01 430.5,-744.92 430.5,-744.92 430.5,-748.88 426.54,-752.84 422.58,-752.84"/>
<text xml:space="preserve" text-anchor="middle" x="331.38" y="-735.54" font-family="Arial" font-size="14.00" fill="#c6c5fe">app/dailyRecordService.test.ts</text>
</g>
<!-- app/dailyRecordService.test.ts&#45;&gt;app/dailyRecordService.ts -->
<g id="edge2" class="edge">
<title>app/dailyRecordService.test.ts&#45;&gt;app/dailyRecordService.ts</title>
<path fill="none" stroke="#757575" d="M371.93,-728.6C429.99,-710.46 538.24,-676.63 601.94,-656.73"/>
<polygon fill="#757575" stroke="#757575" points="602.96,-660.08 611.46,-653.75 600.87,-653.39 602.96,-660.08"/>
</g>
<!-- app/dailyRecordService.test.ts&#45;&gt;domain/type.ts -->
<g id="edge3" class="edge">
<title>app/dailyRecordService.test.ts&#45;&gt;domain/type.ts</title>
<path fill="none" stroke="#757575" d="M393.2,-753.33C493.37,-773 699.58,-810.56 876.25,-823.97 959.73,-830.3 1564.5,-872.43 1629.75,-819.97 1685.2,-775.38 1639.46,-730.09 1665.75,-663.97 1689.5,-604.23 1731.33,-540.76 1753.94,-508.5"/>
<polygon fill="#757575" stroke="#757575" points="1756.75,-510.58 1759.68,-500.4 1751.04,-506.53 1756.75,-510.58"/>
</g>
<!-- app/dailyRecordService.ts&#45;&gt;domain/type.ts -->
<g id="edge7" class="edge">
<title>app/dailyRecordService.ts&#45;&gt;domain/type.ts</title>
<path fill="none" stroke="#757575" d="M690.39,-628.7C733.88,-614.45 809.51,-591.42 876.25,-579.97 1207.16,-523.19 1298.95,-583.38 1629.75,-525.97 1661.16,-520.51 1695.67,-510.92 1722.54,-502.61"/>
<polygon fill="#757575" stroke="#757575" points="1723.25,-506.06 1731.74,-499.72 1721.15,-499.38 1723.25,-506.06"/>
</g>
<!-- data/dailyRecordRepository.localStorage.ts -->
<g id="node6" class="node">
<title>data/dailyRecordRepository.localStorage.ts</title>
<path fill="none" stroke="#c6c5fe" d="M1191.08,-814.84C1191.08,-814.84 932.92,-814.84 932.92,-814.84 928.96,-814.84 925,-810.88 925,-806.92 925,-806.92 925,-799.01 925,-799.01 925,-795.05 928.96,-791.09 932.92,-791.09 932.92,-791.09 1191.08,-791.09 1191.08,-791.09 1195.04,-791.09 1199,-795.05 1199,-799.01 1199,-799.01 1199,-806.92 1199,-806.92 1199,-810.88 1195.04,-814.84 1191.08,-814.84"/>
<text xml:space="preserve" text-anchor="middle" x="1062" y="-797.54" font-family="Arial" font-size="14.00" fill="#c6c5fe">data/dailyRecordRepository.localStorage.ts</text>
</g>
<!-- app/dailyRecordService.ts&#45;&gt;data/dailyRecordRepository.localStorage.ts -->
<g id="edge4" class="edge">
<title>app/dailyRecordService.ts&#45;&gt;data/dailyRecordRepository.localStorage.ts</title>
<path fill="none" stroke="#757575" d="M669.37,-653.26C703.62,-680.59 791.21,-746.42 876.25,-776.97 888.63,-781.41 901.74,-785.11 915.03,-788.17"/>
<polygon fill="#757575" stroke="#757575" points="914.23,-791.58 924.74,-790.28 915.71,-784.74 914.23,-791.58"/>
</g>
<!-- domain/factories/createEmptyDailyRecordAggregate.ts -->
<g id="node7" class="node">
<title>domain/factories/createEmptyDailyRecordAggregate.ts</title>
<path fill="none" stroke="#c6c5fe" d="M1621.83,-616.84C1621.83,-616.84 1291.67,-616.84 1291.67,-616.84 1287.71,-616.84 1283.75,-612.88 1283.75,-608.92 1283.75,-608.92 1283.75,-601.01 1283.75,-601.01 1283.75,-597.05 1287.71,-593.09 1291.67,-593.09 1291.67,-593.09 1621.83,-593.09 1621.83,-593.09 1625.79,-593.09 1629.75,-597.05 1629.75,-601.01 1629.75,-601.01 1629.75,-608.92 1629.75,-608.92 1629.75,-612.88 1625.79,-616.84 1621.83,-616.84"/>
<text xml:space="preserve" text-anchor="middle" x="1456.75" y="-599.54" font-family="Arial" font-size="14.00" fill="#c6c5fe">domain/factories/createEmptyDailyRecordAggregate.ts</text>
</g>
<!-- app/dailyRecordService.ts&#45;&gt;domain/factories/createEmptyDailyRecordAggregate.ts -->
<g id="edge5" class="edge">
<title>app/dailyRecordService.ts&#45;&gt;domain/factories/createEmptyDailyRecordAggregate.ts</title>
<path fill="none" stroke="#757575" d="M739.92,-639.56C855.3,-637.35 1067.15,-632.23 1247.75,-621.97 1266.27,-620.91 1285.7,-619.6 1304.94,-618.18"/>
<polygon fill="#757575" stroke="#757575" points="1305.02,-621.68 1314.73,-617.44 1304.5,-614.7 1305.02,-621.68"/>
</g>
<!-- domain/normalizers/normalizeDailyRecordAggregate.ts -->
<g id="node8" class="node">
<title>domain/normalizers/normalizeDailyRecordAggregate.ts</title>
<path fill="none" stroke="#c6c5fe" d="M1228.21,-386.84C1228.21,-386.84 895.79,-386.84 895.79,-386.84 891.83,-386.84 887.88,-382.88 887.88,-378.92 887.88,-378.92 887.88,-371.01 887.88,-371.01 887.88,-367.05 891.83,-363.09 895.79,-363.09 895.79,-363.09 1228.21,-363.09 1228.21,-363.09 1232.17,-363.09 1236.12,-367.05 1236.12,-371.01 1236.12,-371.01 1236.12,-378.92 1236.12,-378.92 1236.12,-382.88 1232.17,-386.84 1228.21,-386.84"/>
<text xml:space="preserve" text-anchor="middle" x="1062" y="-369.54" font-family="Arial" font-size="14.00" fill="#c6c5fe">domain/normalizers/normalizeDailyRecordAggregate.ts</text>
</g>
<!-- app/dailyRecordService.ts&#45;&gt;domain/normalizers/normalizeDailyRecordAggregate.ts -->
<g id="edge6" class="edge">
<title>app/dailyRecordService.ts&#45;&gt;domain/normalizers/normalizeDailyRecordAggregate.ts</title>
<path fill="none" stroke="#757575" d="M662.4,-628.84C688.3,-590.73 774.01,-472.54 876.25,-415.97 897.44,-404.24 921.74,-395.87 945.61,-389.89"/>
<polygon fill="#757575" stroke="#757575" points="946.14,-393.36 955.06,-387.66 944.53,-386.55 946.14,-393.36"/>
</g>
<!-- ports/DailyRecordRepository.ts -->
<g id="node9" class="node">
<title>ports/DailyRecordRepository.ts</title>
<path fill="none" stroke="#c6c5fe" d="M1549.46,-776.84C1549.46,-776.84 1364.04,-776.84 1364.04,-776.84 1360.08,-776.84 1356.12,-772.88 1356.12,-768.92 1356.12,-768.92 1356.12,-761.01 1356.12,-761.01 1356.12,-757.05 1360.08,-753.09 1364.04,-753.09 1364.04,-753.09 1549.46,-753.09 1549.46,-753.09 1553.42,-753.09 1557.38,-757.05 1557.38,-761.01 1557.38,-761.01 1557.38,-768.92 1557.38,-768.92 1557.38,-772.88 1553.42,-776.84 1549.46,-776.84"/>
<text xml:space="preserve" text-anchor="middle" x="1456.75" y="-759.54" font-family="Arial" font-size="14.00" fill="#c6c5fe">ports/DailyRecordRepository.ts</text>
</g>
<!-- app/dailyRecordService.ts&#45;&gt;ports/DailyRecordRepository.ts -->
<g id="edge8" class="edge">
<title>app/dailyRecordService.ts&#45;&gt;ports/DailyRecordRepository.ts</title>
<path fill="none" stroke="#757575" d="M673.88,-653.31C711.36,-676.27 796.75,-724.9 876.25,-743.97 1035.58,-782.18 1226.54,-780.3 1344.52,-773.85"/>
<polygon fill="#757575" stroke="#757575" points="1344.41,-777.36 1354.19,-773.3 1344.01,-770.37 1344.41,-777.36"/>
</g>
<!-- data/dailyRecordRepository.localStorage.ts&#45;&gt;domain/type.ts -->
<g id="edge10" class="edge">
<title>data/dailyRecordRepository.localStorage.ts&#45;&gt;domain/type.ts</title>
<path fill="none" stroke="#757575" d="M1183.73,-815.32C1329.24,-827.54 1562.61,-837.74 1629.75,-785.97 1674.52,-751.44 1643.29,-715.85 1665.75,-663.97 1691.29,-604.98 1732.38,-541.19 1754.4,-508.69"/>
<polygon fill="#757575" stroke="#757575" points="1757.23,-510.76 1759.99,-500.53 1751.45,-506.81 1757.23,-510.76"/>
</g>
<!-- data/dailyRecordRepository.localStorage.ts&#45;&gt;ports/DailyRecordRepository.ts -->
<g id="edge11" class="edge">
<title>data/dailyRecordRepository.localStorage.ts&#45;&gt;ports/DailyRecordRepository.ts</title>
<path fill="none" stroke="#757575" d="M1190.79,-790.6C1240.33,-785.81 1296.54,-780.37 1344.39,-775.74"/>
<polygon fill="#757575" stroke="#757575" points="1344.61,-779.24 1354.23,-774.79 1343.94,-772.27 1344.61,-779.24"/>
</g>
<!-- domain/storage/dailyRecordStorage.ts -->
<g id="node10" class="node">
<title>domain/storage/dailyRecordStorage.ts</title>
<path fill="none" stroke="#c6c5fe" d="M1571.96,-894.84C1571.96,-894.84 1341.54,-894.84 1341.54,-894.84 1337.58,-894.84 1333.62,-890.88 1333.62,-886.92 1333.62,-886.92 1333.62,-879.01 1333.62,-879.01 1333.62,-875.05 1337.58,-871.09 1341.54,-871.09 1341.54,-871.09 1571.96,-871.09 1571.96,-871.09 1575.92,-871.09 1579.88,-875.05 1579.88,-879.01 1579.88,-879.01 1579.88,-886.92 1579.88,-886.92 1579.88,-890.88 1575.92,-894.84 1571.96,-894.84"/>
<text xml:space="preserve" text-anchor="middle" x="1456.75" y="-877.54" font-family="Arial" font-size="14.00" fill="#c6c5fe">domain/storage/dailyRecordStorage.ts</text>
</g>
<!-- data/dailyRecordRepository.localStorage.ts&#45;&gt;domain/storage/dailyRecordStorage.ts -->
<g id="edge9" class="edge">
<title>data/dailyRecordRepository.localStorage.ts&#45;&gt;domain/storage/dailyRecordStorage.ts</title>
<path fill="none" stroke="#757575" d="M1123.51,-815.29C1193.71,-829.59 1309.35,-853.15 1384.01,-868.35"/>
<polygon fill="#757575" stroke="#757575" points="1383.19,-871.76 1393.69,-870.33 1384.59,-864.9 1383.19,-871.76"/>
</g>
<!-- domain/factories/createEmptyDailyRecordAggregate.ts&#45;&gt;domain/type.ts -->
<g id="edge13" class="edge">
<title>domain/factories/createEmptyDailyRecordAggregate.ts&#45;&gt;domain/type.ts</title>
<path fill="none" stroke="#757575" d="M1582.49,-592.66C1598.68,-589.17 1614.8,-584.7 1629.75,-578.97 1674.92,-561.65 1720.47,-527.92 1746.78,-506.47"/>
<polygon fill="#757575" stroke="#757575" points="1748.95,-509.22 1754.4,-500.14 1744.47,-503.84 1748.95,-509.22"/>
</g>
<!-- domain/normalizers/normalizeDailyRecordAggregate.ts&#45;&gt;domain/type.ts -->
<g id="edge19" class="edge">
<title>domain/normalizers/normalizeDailyRecordAggregate.ts&#45;&gt;domain/type.ts</title>
<path fill="none" stroke="#757575" d="M1098.67,-362.65C1190.91,-332.94 1443.11,-265.4 1629.75,-343.97 1688.61,-368.74 1735.04,-431.76 1756.51,-465.26"/>
<polygon fill="#757575" stroke="#757575" points="1753.3,-466.72 1761.56,-473.35 1759.24,-463.01 1753.3,-466.72"/>
</g>
<!-- domain/normalizers/normalizeExerciseOrders.ts -->
<g id="node14" class="node">
<title>domain/normalizers/normalizeExerciseOrders.ts</title>
<path fill="none" stroke="#c6c5fe" d="M1601.96,-418.84C1601.96,-418.84 1311.54,-418.84 1311.54,-418.84 1307.58,-418.84 1303.62,-414.88 1303.62,-410.92 1303.62,-410.92 1303.62,-403.01 1303.62,-403.01 1303.62,-399.05 1307.58,-395.09 1311.54,-395.09 1311.54,-395.09 1601.96,-395.09 1601.96,-395.09 1605.92,-395.09 1609.88,-399.05 1609.88,-403.01 1609.88,-403.01 1609.88,-410.92 1609.88,-410.92 1609.88,-414.88 1605.92,-418.84 1601.96,-418.84"/>
<text xml:space="preserve" text-anchor="middle" x="1456.75" y="-401.54" font-family="Arial" font-size="14.00" fill="#c6c5fe">domain/normalizers/normalizeExerciseOrders.ts</text>
</g>
<!-- domain/normalizers/normalizeDailyRecordAggregate.ts&#45;&gt;domain/normalizers/normalizeExerciseOrders.ts -->
<g id="edge16" class="edge">
<title>domain/normalizers/normalizeDailyRecordAggregate.ts&#45;&gt;domain/normalizers/normalizeExerciseOrders.ts</title>
<path fill="none" stroke="#757575" d="M1214.85,-387.34C1240.33,-389.41 1266.86,-391.58 1292.61,-393.67"/>
<polygon fill="#757575" stroke="#757575" points="1292.22,-397.15 1302.47,-394.48 1292.79,-390.18 1292.22,-397.15"/>
</g>
<!-- domain/normalizers/normalizeMealOrders.ts -->
<g id="node15" class="node">
<title>domain/normalizers/normalizeMealOrders.ts</title>
<path fill="none" stroke="#c6c5fe" d="M1591.08,-376.84C1591.08,-376.84 1322.42,-376.84 1322.42,-376.84 1318.46,-376.84 1314.5,-372.88 1314.5,-368.92 1314.5,-368.92 1314.5,-361.01 1314.5,-361.01 1314.5,-357.05 1318.46,-353.09 1322.42,-353.09 1322.42,-353.09 1591.08,-353.09 1591.08,-353.09 1595.04,-353.09 1599,-357.05 1599,-361.01 1599,-361.01 1599,-368.92 1599,-368.92 1599,-372.88 1595.04,-376.84 1591.08,-376.84"/>
<text xml:space="preserve" text-anchor="middle" x="1456.75" y="-359.54" font-family="Arial" font-size="14.00" fill="#c6c5fe">domain/normalizers/normalizeMealOrders.ts</text>
</g>
<!-- domain/normalizers/normalizeDailyRecordAggregate.ts&#45;&gt;domain/normalizers/normalizeMealOrders.ts -->
<g id="edge17" class="edge">
<title>domain/normalizers/normalizeDailyRecordAggregate.ts&#45;&gt;domain/normalizers/normalizeMealOrders.ts</title>
<path fill="none" stroke="#757575" d="M1236.41,-370.55C1258.55,-369.99 1281.08,-369.41 1302.86,-368.86"/>
<polygon fill="#757575" stroke="#757575" points="1302.75,-372.36 1312.66,-368.61 1302.57,-365.37 1302.75,-372.36"/>
</g>
<!-- domain/normalizers/normalizeWeightOrders.ts -->
<g id="node16" class="node">
<title>domain/normalizers/normalizeWeightOrders.ts</title>
<path fill="none" stroke="#c6c5fe" d="M1597.08,-498.84C1597.08,-498.84 1316.42,-498.84 1316.42,-498.84 1312.46,-498.84 1308.5,-494.88 1308.5,-490.92 1308.5,-490.92 1308.5,-483.01 1308.5,-483.01 1308.5,-479.05 1312.46,-475.09 1316.42,-475.09 1316.42,-475.09 1597.08,-475.09 1597.08,-475.09 1601.04,-475.09 1605,-479.05 1605,-483.01 1605,-483.01 1605,-490.92 1605,-490.92 1605,-494.88 1601.04,-498.84 1597.08,-498.84"/>
<text xml:space="preserve" text-anchor="middle" x="1456.75" y="-481.54" font-family="Arial" font-size="14.00" fill="#c6c5fe">domain/normalizers/normalizeWeightOrders.ts</text>
</g>
<!-- domain/normalizers/normalizeDailyRecordAggregate.ts&#45;&gt;domain/normalizers/normalizeWeightOrders.ts -->
<g id="edge18" class="edge">
<title>domain/normalizers/normalizeDailyRecordAggregate.ts&#45;&gt;domain/normalizers/normalizeWeightOrders.ts</title>
<path fill="none" stroke="#757575" d="M1126.71,-387.29C1162.52,-394.67 1207.89,-404.78 1247.75,-415.97 1255.81,-418.23 1350.65,-450.78 1409.45,-471.02"/>
<polygon fill="#757575" stroke="#757575" points="1407.95,-474.2 1418.55,-474.15 1410.23,-467.58 1407.95,-474.2"/>
</g>
<!-- ports/DailyRecordRepository.ts&#45;&gt;domain/type.ts -->
<g id="edge47" class="edge">
<title>ports/DailyRecordRepository.ts&#45;&gt;domain/type.ts</title>
<path fill="none" stroke="#757575" d="M1557.83,-766.09C1583.21,-762.22 1609.11,-754.23 1629.75,-738.97 1659.48,-716.98 1648.39,-696.61 1665.75,-663.97 1696.09,-606.93 1735.52,-541.87 1755.92,-508.78"/>
<polygon fill="#757575" stroke="#757575" points="1758.76,-510.85 1761.05,-500.5 1752.81,-507.16 1758.76,-510.85"/>
</g>
<!-- domain/storage/dailyRecordStorage.ts&#45;&gt;domain/type.ts -->
<g id="edge34" class="edge">
<title>domain/storage/dailyRecordStorage.ts&#45;&gt;domain/type.ts</title>
<path fill="none" stroke="#757575" d="M1580.3,-883.46C1598.7,-878.47 1616.07,-870.19 1629.75,-856.97 1692.5,-796.34 1635.23,-745.71 1665.75,-663.97 1688.23,-603.74 1730.58,-540.47 1753.61,-508.37"/>
<polygon fill="#757575" stroke="#757575" points="1756.41,-510.46 1759.46,-500.31 1750.75,-506.34 1756.41,-510.46"/>
</g>
<!-- legacy/domain/DailyRecord.ts -->
<g id="node22" class="node">
<title>legacy/domain/DailyRecord.ts</title>
<path fill="none" stroke="#cfffac" d="M1860.21,-974.84C1860.21,-974.84 1680.79,-974.84 1680.79,-974.84 1676.83,-974.84 1672.88,-970.88 1672.88,-966.92 1672.88,-966.92 1672.88,-959.01 1672.88,-959.01 1672.88,-955.05 1676.83,-951.09 1680.79,-951.09 1680.79,-951.09 1860.21,-951.09 1860.21,-951.09 1864.17,-951.09 1868.12,-955.05 1868.12,-959.01 1868.12,-959.01 1868.12,-966.92 1868.12,-966.92 1868.12,-970.88 1864.17,-974.84 1860.21,-974.84"/>
<text xml:space="preserve" text-anchor="middle" x="1770.5" y="-957.54" font-family="Arial" font-size="14.00" fill="#cfffac">legacy/domain/DailyRecord.ts</text>
</g>
<!-- domain/storage/dailyRecordStorage.ts&#45;&gt;legacy/domain/DailyRecord.ts -->
<g id="edge35" class="edge">
<title>domain/storage/dailyRecordStorage.ts&#45;&gt;legacy/domain/DailyRecord.ts</title>
<path fill="none" stroke="#757575" d="M1564.01,-895.31C1585.93,-898.89 1608.73,-903.39 1629.75,-908.97 1665.48,-918.45 1704.62,-934.05 1732.36,-946.05"/>
<polygon fill="#757575" stroke="#757575" points="1730.82,-949.19 1741.38,-950.01 1733.63,-942.78 1730.82,-949.19"/>
</g>
<!-- domain/factories/createEmptyDailyRecordAggregate.test.ts -->
<g id="node11" class="node">
<title>domain/factories/createEmptyDailyRecordAggregate.test.ts</title>
<path fill="none" stroke="#c6c5fe" d="M1239.83,-612.84C1239.83,-612.84 884.17,-612.84 884.17,-612.84 880.21,-612.84 876.25,-608.88 876.25,-604.92 876.25,-604.92 876.25,-597.01 876.25,-597.01 876.25,-593.05 880.21,-589.09 884.17,-589.09 884.17,-589.09 1239.83,-589.09 1239.83,-589.09 1243.79,-589.09 1247.75,-593.05 1247.75,-597.01 1247.75,-597.01 1247.75,-604.92 1247.75,-604.92 1247.75,-608.88 1243.79,-612.84 1239.83,-612.84"/>
<text xml:space="preserve" text-anchor="middle" x="1062" y="-595.54" font-family="Arial" font-size="14.00" fill="#c6c5fe">domain/factories/createEmptyDailyRecordAggregate.test.ts</text>
</g>
<!-- domain/factories/createEmptyDailyRecordAggregate.test.ts&#45;&gt;domain/factories/createEmptyDailyRecordAggregate.ts -->
<g id="edge12" class="edge">
<title>domain/factories/createEmptyDailyRecordAggregate.test.ts&#45;&gt;domain/factories/createEmptyDailyRecordAggregate.ts</title>
<path fill="none" stroke="#757575" d="M1248.16,-602.85C1256.13,-602.93 1264.13,-603.01 1272.1,-603.1"/>
<polygon fill="#757575" stroke="#757575" points="1271.79,-606.59 1281.83,-603.2 1271.86,-599.59 1271.79,-606.59"/>
</g>
<!-- domain/labels/wellnessLabels.ts -->
<g id="node12" class="node">
<title>domain/labels/wellnessLabels.ts</title>
<path fill="none" stroke="#cfffac" d="M1867.33,-696.84C1867.33,-696.84 1673.67,-696.84 1673.67,-696.84 1669.71,-696.84 1665.75,-692.88 1665.75,-688.92 1665.75,-688.92 1665.75,-681.01 1665.75,-681.01 1665.75,-677.05 1669.71,-673.09 1673.67,-673.09 1673.67,-673.09 1867.33,-673.09 1867.33,-673.09 1871.29,-673.09 1875.25,-677.05 1875.25,-681.01 1875.25,-681.01 1875.25,-688.92 1875.25,-688.92 1875.25,-692.88 1871.29,-696.84 1867.33,-696.84"/>
<text xml:space="preserve" text-anchor="middle" x="1770.5" y="-679.54" font-family="Arial" font-size="14.00" fill="#cfffac">domain/labels/wellnessLabels.ts</text>
</g>
<!-- domain/normalizers/normalizeDailyRecordAggregate.test.ts -->
<g id="node13" class="node">
<title>domain/normalizers/normalizeDailyRecordAggregate.test.ts</title>
<path fill="none" stroke="#c6c5fe" d="M832.33,-332.84C832.33,-332.84 474.42,-332.84 474.42,-332.84 470.46,-332.84 466.5,-328.88 466.5,-324.92 466.5,-324.92 466.5,-317.01 466.5,-317.01 466.5,-313.05 470.46,-309.09 474.42,-309.09 474.42,-309.09 832.33,-309.09 832.33,-309.09 836.29,-309.09 840.25,-313.05 840.25,-317.01 840.25,-317.01 840.25,-324.92 840.25,-324.92 840.25,-328.88 836.29,-332.84 832.33,-332.84"/>
<text xml:space="preserve" text-anchor="middle" x="653.38" y="-315.54" font-family="Arial" font-size="14.00" fill="#c6c5fe">domain/normalizers/normalizeDailyRecordAggregate.test.ts</text>
</g>
<!-- domain/normalizers/normalizeDailyRecordAggregate.test.ts&#45;&gt;domain/type.ts -->
<g id="edge15" class="edge">
<title>domain/normalizers/normalizeDailyRecordAggregate.test.ts&#45;&gt;domain/type.ts</title>
<path fill="none" stroke="#757575" d="M746.99,-308.6C959.74,-281.89 1476.8,-227.07 1629.75,-302.97 1698.58,-337.12 1742.64,-423.17 1760.47,-464.34"/>
<polygon fill="#757575" stroke="#757575" points="1757.22,-465.64 1764.31,-473.51 1763.68,-462.93 1757.22,-465.64"/>
</g>
<!-- domain/normalizers/normalizeDailyRecordAggregate.test.ts&#45;&gt;domain/normalizers/normalizeDailyRecordAggregate.ts -->
<g id="edge14" class="edge">
<title>domain/normalizers/normalizeDailyRecordAggregate.test.ts&#45;&gt;domain/normalizers/normalizeDailyRecordAggregate.ts</title>
<path fill="none" stroke="#757575" d="M747.41,-333.32C809.9,-341.62 892.33,-352.57 956.99,-361.15"/>
<polygon fill="#757575" stroke="#757575" points="956.16,-364.57 966.53,-362.42 957.08,-357.63 956.16,-364.57"/>
</g>
<!-- domain/normalizers/normalizeExerciseOrders.ts&#45;&gt;domain/type.ts -->
<g id="edge22" class="edge">
<title>domain/normalizers/normalizeExerciseOrders.ts&#45;&gt;domain/type.ts</title>
<path fill="none" stroke="#757575" d="M1564.01,-419.31C1585.93,-422.89 1608.73,-427.39 1629.75,-432.97 1665.48,-442.45 1704.62,-458.05 1732.36,-470.05"/>
<polygon fill="#757575" stroke="#757575" points="1730.82,-473.19 1741.38,-474.01 1733.63,-466.78 1730.82,-473.19"/>
</g>
<!-- domain/normalizers/normalizeMealOrders.ts&#45;&gt;domain/type.ts -->
<g id="edge23" class="edge">
<title>domain/normalizers/normalizeMealOrders.ts&#45;&gt;domain/type.ts</title>
<path fill="none" stroke="#757575" d="M1599.07,-376.3C1609.61,-378.94 1619.95,-382.12 1629.75,-385.97 1677.37,-404.64 1723.67,-443.37 1749.21,-467.08"/>
<polygon fill="#757575" stroke="#757575" points="1746.57,-469.4 1756.24,-473.74 1751.39,-464.32 1746.57,-469.4"/>
</g>
<!-- domain/normalizers/normalizeWeightOrders.ts&#45;&gt;domain/type.ts -->
<g id="edge26" class="edge">
<title>domain/normalizers/normalizeWeightOrders.ts&#45;&gt;domain/type.ts</title>
<path fill="none" stroke="#757575" d="M1605.41,-486.97C1641.11,-486.97 1677.4,-486.97 1706.73,-486.97"/>
<polygon fill="#757575" stroke="#757575" points="1706.52,-490.47 1716.52,-486.97 1706.52,-483.47 1706.52,-490.47"/>
</g>
<!-- domain/normalizers/normalizeExerciseOrders.test.ts -->
<g id="node17" class="node">
<title>domain/normalizers/normalizeExerciseOrders.test.ts</title>
<path fill="none" stroke="#c6c5fe" d="M1219.96,-448.84C1219.96,-448.84 904.04,-448.84 904.04,-448.84 900.08,-448.84 896.12,-444.88 896.12,-440.92 896.12,-440.92 896.12,-433.01 896.12,-433.01 896.12,-429.05 900.08,-425.09 904.04,-425.09 904.04,-425.09 1219.96,-425.09 1219.96,-425.09 1223.92,-425.09 1227.88,-429.05 1227.88,-433.01 1227.88,-433.01 1227.88,-440.92 1227.88,-440.92 1227.88,-444.88 1223.92,-448.84 1219.96,-448.84"/>
<text xml:space="preserve" text-anchor="middle" x="1062" y="-431.54" font-family="Arial" font-size="14.00" fill="#c6c5fe">domain/normalizers/normalizeExerciseOrders.test.ts</text>
</g>
<!-- domain/normalizers/normalizeExerciseOrders.test.ts&#45;&gt;domain/type.ts -->
<g id="edge21" class="edge">
<title>domain/normalizers/normalizeExerciseOrders.test.ts&#45;&gt;domain/type.ts</title>
<path fill="none" stroke="#757575" d="M1228.24,-441.15C1341.46,-445.06 1494.96,-452.42 1629.75,-465.97 1655.04,-468.51 1682.75,-472.43 1706.77,-476.2"/>
<polygon fill="#757575" stroke="#757575" points="1705.96,-479.62 1716.39,-477.74 1707.07,-472.7 1705.96,-479.62"/>
</g>
<!-- domain/normalizers/normalizeExerciseOrders.test.ts&#45;&gt;domain/normalizers/normalizeExerciseOrders.ts -->
<g id="edge20" class="edge">
<title>domain/normalizers/normalizeExerciseOrders.test.ts&#45;&gt;domain/normalizers/normalizeExerciseOrders.ts</title>
<path fill="none" stroke="#757575" d="M1224.73,-424.61C1246.98,-422.91 1269.84,-421.17 1292.12,-419.47"/>
<polygon fill="#757575" stroke="#757575" points="1292.15,-422.97 1301.85,-418.72 1291.61,-415.99 1292.15,-422.97"/>
</g>
<!-- domain/normalizers/normalizeWeightOrders.test.ts -->
<g id="node18" class="node">
<title>domain/normalizers/normalizeWeightOrders.test.ts</title>
<path fill="none" stroke="#c6c5fe" d="M1215.08,-516.84C1215.08,-516.84 908.92,-516.84 908.92,-516.84 904.96,-516.84 901,-512.88 901,-508.92 901,-508.92 901,-501.01 901,-501.01 901,-497.05 904.96,-493.09 908.92,-493.09 908.92,-493.09 1215.08,-493.09 1215.08,-493.09 1219.04,-493.09 1223,-497.05 1223,-501.01 1223,-501.01 1223,-508.92 1223,-508.92 1223,-512.88 1219.04,-516.84 1215.08,-516.84"/>
<text xml:space="preserve" text-anchor="middle" x="1062" y="-499.54" font-family="Arial" font-size="14.00" fill="#c6c5fe">domain/normalizers/normalizeWeightOrders.test.ts</text>
</g>
<!-- domain/normalizers/normalizeWeightOrders.test.ts&#45;&gt;domain/type.ts -->
<g id="edge25" class="edge">
<title>domain/normalizers/normalizeWeightOrders.test.ts&#45;&gt;domain/type.ts</title>
<path fill="none" stroke="#757575" d="M1223.25,-512.62C1336.88,-516.38 1492.87,-518.19 1629.75,-507.97 1655.1,-506.07 1682.81,-502.27 1706.83,-498.42"/>
<polygon fill="#757575" stroke="#757575" points="1707.15,-501.91 1716.45,-496.84 1706.01,-495.01 1707.15,-501.91"/>
</g>
<!-- domain/normalizers/normalizeWeightOrders.test.ts&#45;&gt;domain/normalizers/normalizeWeightOrders.ts -->
<g id="edge24" class="edge">
<title>domain/normalizers/normalizeWeightOrders.test.ts&#45;&gt;domain/normalizers/normalizeWeightOrders.ts</title>
<path fill="none" stroke="#757575" d="M1223.31,-497.62C1247.57,-496.51 1272.6,-495.36 1296.83,-494.25"/>
<polygon fill="#757575" stroke="#757575" points="1296.94,-497.75 1306.77,-493.79 1296.62,-490.76 1296.94,-497.75"/>
</g>
<!-- domain/report/DailyRecordReportView.tsx&#45;&gt;domain/type.ts -->
<g id="edge28" class="edge">
<title>domain/report/DailyRecordReportView.tsx&#45;&gt;domain/type.ts</title>
<path fill="none" stroke="#757575" d="M1195.92,-733C1339.85,-741.44 1558.43,-746.46 1629.75,-705.97 1649.75,-694.61 1726.58,-562.35 1757,-509.04"/>
<polygon fill="#757575" stroke="#757575" points="1759.94,-510.95 1761.84,-500.52 1753.85,-507.48 1759.94,-510.95"/>
</g>
<!-- domain/report/dailyRecordReport.ts -->
<g id="node20" class="node">
<title>domain/report/dailyRecordReport.ts</title>
<path fill="none" stroke="#c6c5fe" d="M1563.71,-696.84C1563.71,-696.84 1349.79,-696.84 1349.79,-696.84 1345.83,-696.84 1341.88,-692.88 1341.88,-688.92 1341.88,-688.92 1341.88,-681.01 1341.88,-681.01 1341.88,-677.05 1345.83,-673.09 1349.79,-673.09 1349.79,-673.09 1563.71,-673.09 1563.71,-673.09 1567.67,-673.09 1571.62,-677.05 1571.62,-681.01 1571.62,-681.01 1571.62,-688.92 1571.62,-688.92 1571.62,-692.88 1567.67,-696.84 1563.71,-696.84"/>
<text xml:space="preserve" text-anchor="middle" x="1456.75" y="-679.54" font-family="Arial" font-size="14.00" fill="#c6c5fe">domain/report/dailyRecordReport.ts</text>
</g>
<!-- domain/report/DailyRecordReportView.tsx&#45;&gt;domain/report/dailyRecordReport.ts -->
<g id="edge27" class="edge">
<title>domain/report/DailyRecordReportView.tsx&#45;&gt;domain/report/dailyRecordReport.ts</title>
<path fill="none" stroke="#757575" d="M1190.79,-710.6C1235.58,-706.27 1285.82,-701.41 1330.41,-697.09"/>
<polygon fill="#757575" stroke="#757575" points="1330.5,-700.6 1340.11,-696.15 1329.82,-693.63 1330.5,-700.6"/>
</g>
<!-- domain/report/dailyRecordReport.ts&#45;&gt;domain/type.ts -->
<g id="edge33" class="edge">
<title>domain/report/dailyRecordReport.ts&#45;&gt;domain/type.ts</title>
<path fill="none" stroke="#757575" d="M1571.85,-679.8C1592.03,-675.57 1612.18,-669.01 1629.75,-658.97 1692.68,-623 1738.68,-546.81 1758.58,-509.09"/>
<polygon fill="#757575" stroke="#757575" points="1761.55,-510.96 1763.01,-500.46 1755.33,-507.76 1761.55,-510.96"/>
</g>
<!-- domain/report/dailyRecordReport.ts&#45;&gt;domain/labels/wellnessLabels.ts -->
<g id="edge32" class="edge">
<title>domain/report/dailyRecordReport.ts&#45;&gt;domain/labels/wellnessLabels.ts</title>
<path fill="none" stroke="#757575" d="M1572.06,-684.97C1598.75,-684.97 1627.19,-684.97 1653.93,-684.97"/>
<polygon fill="#757575" stroke="#757575" points="1653.76,-688.47 1663.76,-684.97 1653.76,-681.47 1653.76,-688.47"/>
</g>
<!-- domain/report/dailyRecordReport.test.ts -->
<g id="node21" class="node">
<title>domain/report/dailyRecordReport.test.ts</title>
<path fill="none" stroke="#c6c5fe" d="M1181.71,-692.84C1181.71,-692.84 942.29,-692.84 942.29,-692.84 938.33,-692.84 934.38,-688.88 934.38,-684.92 934.38,-684.92 934.38,-677.01 934.38,-677.01 934.38,-673.05 938.33,-669.09 942.29,-669.09 942.29,-669.09 1181.71,-669.09 1181.71,-669.09 1185.67,-669.09 1189.62,-673.05 1189.62,-677.01 1189.62,-677.01 1189.62,-684.92 1189.62,-684.92 1189.62,-688.88 1185.67,-692.84 1181.71,-692.84"/>
<text xml:space="preserve" text-anchor="middle" x="1062" y="-675.54" font-family="Arial" font-size="14.00" fill="#c6c5fe">domain/report/dailyRecordReport.test.ts</text>
</g>
<!-- domain/report/dailyRecordReport.test.ts&#45;&gt;domain/type.ts -->
<g id="edge31" class="edge">
<title>domain/report/dailyRecordReport.test.ts&#45;&gt;domain/type.ts</title>
<path fill="none" stroke="#757575" d="M1190.06,-670.81C1351.05,-657.62 1610.13,-635.2 1629.75,-625.97 1686.19,-599.41 1733.11,-540.21 1755.45,-508.31"/>
<polygon fill="#757575" stroke="#757575" points="1758.21,-510.46 1760.96,-500.23 1752.43,-506.51 1758.21,-510.46"/>
</g>
<!-- domain/report/dailyRecordReport.test.ts&#45;&gt;domain/factories/createEmptyDailyRecordAggregate.ts -->
<g id="edge29" class="edge">
<title>domain/report/dailyRecordReport.test.ts&#45;&gt;domain/factories/createEmptyDailyRecordAggregate.ts</title>
<path fill="none" stroke="#757575" d="M1190.12,-670.75C1209.79,-666.99 1229.59,-661.88 1247.75,-654.97 1265.72,-648.12 1265.81,-637.9 1283.75,-630.97 1295.19,-626.54 1307.32,-622.87 1319.65,-619.82"/>
<polygon fill="#757575" stroke="#757575" points="1320.09,-623.31 1329.04,-617.64 1318.51,-616.49 1320.09,-623.31"/>
</g>
<!-- domain/report/dailyRecordReport.test.ts&#45;&gt;domain/report/dailyRecordReport.ts -->
<g id="edge30" class="edge">
<title>domain/report/dailyRecordReport.test.ts&#45;&gt;domain/report/dailyRecordReport.ts</title>
<path fill="none" stroke="#757575" d="M1189.97,-682.26C1234.91,-682.72 1285.41,-683.23 1330.23,-683.69"/>
<polygon fill="#757575" stroke="#757575" points="1329.94,-687.19 1339.98,-683.79 1330.01,-680.19 1329.94,-687.19"/>
</g>
<!-- index.css -->
<g id="node23" class="node">
<title>index.css</title>
<path fill="none" stroke="#cfffac" d="M188.33,-507.84C188.33,-507.84 131.92,-507.84 131.92,-507.84 127.96,-507.84 124,-503.88 124,-499.92 124,-499.92 124,-492.01 124,-492.01 124,-488.05 127.96,-484.09 131.92,-484.09 131.92,-484.09 188.33,-484.09 188.33,-484.09 192.29,-484.09 196.25,-488.05 196.25,-492.01 196.25,-492.01 196.25,-499.92 196.25,-499.92 196.25,-503.88 192.29,-507.84 188.33,-507.84"/>
<text xml:space="preserve" text-anchor="middle" x="160.12" y="-490.54" font-family="Arial" font-size="14.00" fill="#cfffac">index.css</text>
</g>
<!-- legacy/components/DailyRecordForm.tsx -->
<g id="node24" class="node">
<title>legacy/components/DailyRecordForm.tsx</title>
<path fill="none" stroke="#c6c5fe" d="M777.21,-994.84C777.21,-994.84 529.54,-994.84 529.54,-994.84 525.58,-994.84 521.62,-990.88 521.62,-986.92 521.62,-986.92 521.62,-979.01 521.62,-979.01 521.62,-975.05 525.58,-971.09 529.54,-971.09 529.54,-971.09 777.21,-971.09 777.21,-971.09 781.17,-971.09 785.12,-975.05 785.12,-979.01 785.12,-979.01 785.12,-986.92 785.12,-986.92 785.12,-990.88 781.17,-994.84 777.21,-994.84"/>
<text xml:space="preserve" text-anchor="middle" x="653.38" y="-977.54" font-family="Arial" font-size="14.00" fill="#c6c5fe">legacy/components/DailyRecordForm.tsx</text>
</g>
<!-- legacy/components/DailyRecordForm.tsx&#45;&gt;legacy/domain/DailyRecord.ts -->
<g id="edge37" class="edge">
<title>legacy/components/DailyRecordForm.tsx&#45;&gt;legacy/domain/DailyRecord.ts</title>
<path fill="none" stroke="#757575" d="M785.43,-971.05C815.27,-968.53 846.84,-966.02 876.25,-963.97 1210.47,-940.64 1295.65,-917 1629.75,-941.97 1649.28,-943.43 1670.22,-946.02 1689.79,-948.89"/>
<polygon fill="#757575" stroke="#757575" points="1689.23,-952.35 1699.64,-950.39 1690.28,-945.43 1689.23,-952.35"/>
</g>
<!-- legacy/data/localStorageHistory.ts -->
<g id="node25" class="node">
<title>legacy/data/localStorageHistory.ts</title>
<path fill="none" stroke="#c6c5fe" d="M1163.71,-1014.84C1163.71,-1014.84 960.29,-1014.84 960.29,-1014.84 956.33,-1014.84 952.38,-1010.88 952.38,-1006.92 952.38,-1006.92 952.38,-999.01 952.38,-999.01 952.38,-995.05 956.33,-991.09 960.29,-991.09 960.29,-991.09 1163.71,-991.09 1163.71,-991.09 1167.67,-991.09 1171.62,-995.05 1171.62,-999.01 1171.62,-999.01 1171.62,-1006.92 1171.62,-1006.92 1171.62,-1010.88 1167.67,-1014.84 1163.71,-1014.84"/>
<text xml:space="preserve" text-anchor="middle" x="1062" y="-997.54" font-family="Arial" font-size="14.00" fill="#c6c5fe">legacy/data/localStorageHistory.ts</text>
</g>
<!-- legacy/components/DailyRecordForm.tsx&#45;&gt;legacy/data/localStorageHistory.ts -->
<g id="edge36" class="edge">
<title>legacy/components/DailyRecordForm.tsx&#45;&gt;legacy/data/localStorageHistory.ts</title>
<path fill="none" stroke="#757575" d="M785.55,-989.42C835.4,-991.87 891.9,-994.65 940.69,-997.05"/>
<polygon fill="#757575" stroke="#757575" points="940.27,-1000.53 950.43,-997.53 940.62,-993.54 940.27,-1000.53"/>
</g>
<!-- legacy/domain/formatDailyRecord.ts -->
<g id="node26" class="node">
<title>legacy/domain/formatDailyRecord.ts</title>
<path fill="none" stroke="#c6c5fe" d="M1565.96,-1054.84C1565.96,-1054.84 1347.54,-1054.84 1347.54,-1054.84 1343.58,-1054.84 1339.62,-1050.88 1339.62,-1046.92 1339.62,-1046.92 1339.62,-1039.01 1339.62,-1039.01 1339.62,-1035.05 1343.58,-1031.09 1347.54,-1031.09 1347.54,-1031.09 1565.96,-1031.09 1565.96,-1031.09 1569.92,-1031.09 1573.88,-1035.05 1573.88,-1039.01 1573.88,-1039.01 1573.88,-1046.92 1573.88,-1046.92 1573.88,-1050.88 1569.92,-1054.84 1565.96,-1054.84"/>
<text xml:space="preserve" text-anchor="middle" x="1456.75" y="-1037.54" font-family="Arial" font-size="14.00" fill="#c6c5fe">legacy/domain/formatDailyRecord.ts</text>
</g>
<!-- legacy/components/DailyRecordForm.tsx&#45;&gt;legacy/domain/formatDailyRecord.ts -->
<g id="edge38" class="edge">
<title>legacy/components/DailyRecordForm.tsx&#45;&gt;legacy/domain/formatDailyRecord.ts</title>
<path fill="none" stroke="#757575" d="M708.3,-995.27C753.02,-1004.92 818.42,-1017.71 876.25,-1023.97 1031.13,-1040.72 1210.53,-1044.16 1328.2,-1044.26"/>
<polygon fill="#757575" stroke="#757575" points="1327.88,-1047.76 1337.88,-1044.26 1327.88,-1040.76 1327.88,-1047.76"/>
</g>
<!-- legacy/domain/history.ts -->
<g id="node27" class="node">
<title>legacy/domain/history.ts</title>
<path fill="none" stroke="#c6c5fe" d="M1529.21,-974.84C1529.21,-974.84 1384.29,-974.84 1384.29,-974.84 1380.33,-974.84 1376.38,-970.88 1376.38,-966.92 1376.38,-966.92 1376.38,-959.01 1376.38,-959.01 1376.38,-955.05 1380.33,-951.09 1384.29,-951.09 1384.29,-951.09 1529.21,-951.09 1529.21,-951.09 1533.17,-951.09 1537.12,-955.05 1537.12,-959.01 1537.12,-959.01 1537.12,-966.92 1537.12,-966.92 1537.12,-970.88 1533.17,-974.84 1529.21,-974.84"/>
<text xml:space="preserve" text-anchor="middle" x="1456.75" y="-957.54" font-family="Arial" font-size="14.00" fill="#c6c5fe">legacy/domain/history.ts</text>
</g>
<!-- legacy/components/DailyRecordForm.tsx&#45;&gt;legacy/domain/history.ts -->
<g id="edge39" class="edge">
<title>legacy/components/DailyRecordForm.tsx&#45;&gt;legacy/domain/history.ts</title>
<path fill="none" stroke="#757575" d="M785.36,-979.7C948.47,-975.63 1222.87,-968.78 1364.72,-965.24"/>
<polygon fill="#757575" stroke="#757575" points="1364.53,-968.74 1374.44,-965 1364.35,-961.75 1364.53,-968.74"/>
</g>
<!-- legacy/data/localStorageHistory.ts&#45;&gt;legacy/domain/DailyRecord.ts -->
<g id="edge40" class="edge">
<title>legacy/data/localStorageHistory.ts&#45;&gt;legacy/domain/DailyRecord.ts</title>
<path fill="none" stroke="#757575" d="M1171.88,-1003.05C1286.16,-1002.26 1470.93,-998.51 1629.75,-983.97 1648.35,-982.26 1668.25,-979.72 1687.02,-976.98"/>
<polygon fill="#757575" stroke="#757575" points="1687.37,-980.46 1696.74,-975.52 1686.33,-973.54 1687.37,-980.46"/>
</g>
<!-- legacy/data/localStorageHistory.ts&#45;&gt;legacy/domain/history.ts -->
<g id="edge41" class="edge">
<title>legacy/data/localStorageHistory.ts&#45;&gt;legacy/domain/history.ts</title>
<path fill="none" stroke="#757575" d="M1171.88,-991.88C1232.54,-985.7 1307.19,-978.1 1364.72,-972.24"/>
<polygon fill="#757575" stroke="#757575" points="1364.88,-975.74 1374.48,-971.24 1364.17,-968.78 1364.88,-975.74"/>
</g>
<!-- legacy/domain/formatDailyRecord.ts&#45;&gt;legacy/domain/DailyRecord.ts -->
<g id="edge42" class="edge">
<title>legacy/domain/formatDailyRecord.ts&#45;&gt;legacy/domain/DailyRecord.ts</title>
<path fill="none" stroke="#757575" d="M1564.01,-1030.62C1585.93,-1027.04 1608.73,-1022.54 1629.75,-1016.97 1665.48,-1007.48 1704.62,-991.89 1732.36,-979.89"/>
<polygon fill="#757575" stroke="#757575" points="1733.63,-983.15 1741.38,-975.93 1730.82,-976.74 1733.63,-983.15"/>
</g>
<!-- legacy/domain/history.ts&#45;&gt;legacy/domain/DailyRecord.ts -->
<g id="edge43" class="edge">
<title>legacy/domain/history.ts&#45;&gt;legacy/domain/DailyRecord.ts</title>
<path fill="none" stroke="#757575" d="M1537.22,-962.97C1574.9,-962.97 1620.49,-962.97 1661.27,-962.97"/>
<polygon fill="#757575" stroke="#757575" points="1661.12,-966.47 1671.12,-962.97 1661.12,-959.47 1661.12,-966.47"/>
</g>
<!-- main.tsx -->
<g id="node28" class="node">
<title>main.tsx</title>
<path fill="none" stroke="#c6c5fe" d="M69.58,-549.84C69.58,-549.84 18.42,-549.84 18.42,-549.84 14.46,-549.84 10.5,-545.88 10.5,-541.92 10.5,-541.92 10.5,-534.01 10.5,-534.01 10.5,-530.05 14.46,-526.09 18.42,-526.09 18.42,-526.09 69.58,-526.09 69.58,-526.09 73.54,-526.09 77.5,-530.05 77.5,-534.01 77.5,-534.01 77.5,-541.92 77.5,-541.92 77.5,-545.88 73.54,-549.84 69.58,-549.84"/>
<text xml:space="preserve" text-anchor="middle" x="44" y="-532.54" font-family="Arial" font-size="14.00" fill="#c6c5fe">main.tsx</text>
</g>
<!-- main.tsx&#45;&gt;App.tsx -->
<g id="edge44" class="edge">
<title>main.tsx&#45;&gt;App.tsx</title>
<path fill="none" stroke="#757575" d="M77.7,-537.97C90.24,-537.97 104.7,-537.97 117.92,-537.97"/>
<polygon fill="#757575" stroke="#757575" points="117.64,-541.47 127.64,-537.97 117.64,-534.47 117.64,-541.47"/>
</g>
<!-- main.tsx&#45;&gt;domain/storage/dailyRecordStorage.ts -->
<g id="edge45" class="edge">
<title>main.tsx&#45;&gt;domain/storage/dailyRecordStorage.ts</title>
<path fill="none" stroke="#757575" d="M74.89,-550.13C79.53,-552.68 84.07,-555.63 88,-558.97 224.85,-675.09 150.9,-881.97 330.38,-881.97 330.38,-881.97 330.38,-881.97 654.38,-881.97 889.25,-881.97 1162.86,-882.4 1321.96,-882.7"/>
<polygon fill="#757575" stroke="#757575" points="1321.7,-886.2 1331.71,-882.72 1321.71,-879.2 1321.7,-886.2"/>
</g>
<!-- main.tsx&#45;&gt;index.css -->
<g id="edge46" class="edge">
<title>main.tsx&#45;&gt;index.css</title>
<path fill="none" stroke="#757575" d="M77.7,-525.93C89.32,-521.66 102.59,-516.77 115,-512.2"/>
<polygon fill="#757575" stroke="#757575" points="116.03,-515.56 124.2,-508.82 113.61,-508.99 116.03,-515.56"/>
</g>
<!-- ui/exercise/ExerciseSessionsEditor.tsx&#45;&gt;domain/type.ts -->
<g id="edge55" class="edge">
<title>ui/exercise/ExerciseSessionsEditor.tsx&#45;&gt;domain/type.ts</title>
<path fill="none" stroke="#757575" d="M776.8,-128.94C1023.1,-121.89 1560.94,-112.16 1629.75,-158.97 1735.81,-231.11 1761.73,-401.38 1767.76,-463.64"/>
<polygon fill="#757575" stroke="#757575" points="1764.26,-463.74 1768.61,-473.39 1771.23,-463.13 1764.26,-463.74"/>
</g>
<!-- ui/meal/MealEditor.tsx&#45;&gt;domain/type.ts -->
<g id="edge56" class="edge">
<title>ui/meal/MealEditor.tsx&#45;&gt;domain/type.ts</title>
<path fill="none" stroke="#757575" d="M692.09,-78.69C831.97,-35.68 1328.47,94.37 1629.75,-119.97 1746.14,-202.76 1765.62,-395.83 1768.86,-463.23"/>
<polygon fill="#757575" stroke="#757575" points="1765.36,-463.27 1769.25,-473.12 1772.36,-463 1765.36,-463.27"/>
</g>
<!-- ui/weights/WeightEditor.tsx&#45;&gt;domain/type.ts -->
<g id="edge57" class="edge">
<title>ui/weights/WeightEditor.tsx&#45;&gt;domain/type.ts</title>
<path fill="none" stroke="#757575" d="M742.35,-250.9C967.74,-241.16 1553.62,-220.32 1629.75,-262.97 1708.48,-307.06 1748.76,-415.8 1763.18,-463.69"/>
<polygon fill="#757575" stroke="#757575" points="1759.81,-464.64 1765.94,-473.27 1766.53,-462.7 1759.81,-464.64"/>
</g>
<!-- ui/wellness/WellnessEditor.tsx&#45;&gt;domain/type.ts -->
<g id="edge58" class="edge">
<title>ui/wellness/WellnessEditor.tsx&#45;&gt;domain/type.ts</title>
<path fill="none" stroke="#757575" d="M751.74,-209.5C983.88,-202.02 1556.07,-188.39 1629.75,-232.97 1716.06,-285.19 1752.88,-411.34 1764.8,-463.64"/>
<polygon fill="#757575" stroke="#757575" points="1761.35,-464.21 1766.88,-473.24 1768.19,-462.73 1761.35,-464.21"/>
</g>
<!-- vite&#45;env.d.ts -->
<g id="node33" class="node">
<title>vite&#45;env.d.ts</title>
<path fill="none" stroke="#cfffac" d="M80.08,-591.84C80.08,-591.84 7.92,-591.84 7.92,-591.84 3.96,-591.84 0,-587.88 0,-583.92 0,-583.92 0,-576.01 0,-576.01 0,-572.05 3.96,-568.09 7.92,-568.09 7.92,-568.09 80.08,-568.09 80.08,-568.09 84.04,-568.09 88,-572.05 88,-576.01 88,-576.01 88,-583.92 88,-583.92 88,-587.88 84.04,-591.84 80.08,-591.84"/>
<text xml:space="preserve" text-anchor="middle" x="44" y="-574.54" font-family="Arial" font-size="14.00" fill="#cfffac">vite&#45;env.d.ts</text>
</g>
</g>
</svg>
