<?xml version="1.0" encoding="UTF-8" standalone="no"?>
<!DOCTYPE svg PUBLIC "-//W3C//DTD SVG 1.1//EN"
 "http://www.w3.org/Graphics/SVG/1.1/DTD/svg11.dtd">
<!-- Generated by graphviz version 14.1.2 (20260124.0452)
 -->
<!-- Title: G Pages: 1 -->
<svg width="1349pt" height="428pt"
 viewBox="0.00 0.00 1349.00 428.00" xmlns="http://www.w3.org/2000/svg" xmlns:xlink="http://www.w3.org/1999/xlink">
<g id="graph0" class="graph" transform="scale(1 1) rotate(0) translate(21.6 406.35)">
<title>G</title>
<polygon fill="#111111" stroke="none" points="-21.6,21.6 -21.6,-406.35 1327.35,-406.35 1327.35,21.6 -21.6,21.6"/>
<!-- App.tsx -->
<g id="node1" class="node">
<title>App.tsx</title>
<path fill="none" stroke="#c6c5fe" d="M182.71,-104.75C182.71,-104.75 137.54,-104.75 137.54,-104.75 133.58,-104.75 129.62,-100.79 129.62,-96.83 129.62,-96.83 129.62,-88.92 129.62,-88.92 129.62,-84.96 133.58,-81 137.54,-81 137.54,-81 182.71,-81 182.71,-81 186.67,-81 190.62,-84.96 190.62,-88.92 190.62,-88.92 190.62,-96.83 190.62,-96.83 190.62,-100.79 186.67,-104.75 182.71,-104.75"/>
<text xml:space="preserve" text-anchor="middle" x="160.12" y="-87.45" font-family="Arial" font-size="14.00" fill="#c6c5fe">App.tsx</text>
</g>
<!-- components/DailyRecordForm.tsx -->
<g id="node2" class="node">
<title>components/DailyRecordForm.tsx</title>
<path fill="none" stroke="#c6c5fe" d="M445.08,-83.75C445.08,-83.75 240.17,-83.75 240.17,-83.75 236.21,-83.75 232.25,-79.79 232.25,-75.83 232.25,-75.83 232.25,-67.92 232.25,-67.92 232.25,-63.96 236.21,-60 240.17,-60 240.17,-60 445.08,-60 445.08,-60 449.04,-60 453,-63.96 453,-67.92 453,-67.92 453,-75.83 453,-75.83 453,-79.79 449.04,-83.75 445.08,-83.75"/>
<text xml:space="preserve" text-anchor="middle" x="342.62" y="-66.45" font-family="Arial" font-size="14.00" fill="#c6c5fe">components/DailyRecordForm.tsx</text>
</g>
<!-- App.tsx&#45;&gt;components/DailyRecordForm.tsx -->
<g id="edge1" class="edge">
<title>App.tsx&#45;&gt;components/DailyRecordForm.tsx</title>
<path fill="none" stroke="#757575" d="M190.93,-89.41C200.59,-88.28 211.96,-86.96 224.05,-85.55"/>
<polygon fill="#757575" stroke="#757575" points="224.3,-89.05 233.83,-84.42 223.49,-82.1 224.3,-89.05"/>
</g>
<!-- ui/DailyRecordFormV110.tsx -->
<g id="node3" class="node">
<title>ui/DailyRecordFormV110.tsx</title>
<path fill="none" stroke="#cfffac" d="M428.58,-125.75C428.58,-125.75 256.67,-125.75 256.67,-125.75 252.71,-125.75 248.75,-121.79 248.75,-117.83 248.75,-117.83 248.75,-109.92 248.75,-109.92 248.75,-105.96 252.71,-102 256.67,-102 256.67,-102 428.58,-102 428.58,-102 432.54,-102 436.5,-105.96 436.5,-109.92 436.5,-109.92 436.5,-117.83 436.5,-117.83 436.5,-121.79 432.54,-125.75 428.58,-125.75"/>
<text xml:space="preserve" text-anchor="middle" x="342.62" y="-108.45" font-family="Arial" font-size="14.00" fill="#cfffac">ui/DailyRecordFormV110.tsx</text>
</g>
<!-- App.tsx&#45;&gt;ui/DailyRecordFormV110.tsx -->
<g id="edge2" class="edge">
<title>App.tsx&#45;&gt;ui/DailyRecordFormV110.tsx</title>
<path fill="none" stroke="#757575" d="M190.93,-96.34C204.07,-97.87 220.38,-99.77 237.37,-101.75"/>
<polygon fill="#757575" stroke="#757575" points="236.76,-105.2 247.1,-102.88 237.57,-98.24 236.76,-105.2"/>
</g>
<!-- data/localStorageHistory.ts -->
<g id="node10" class="node">
<title>data/localStorageHistory.ts</title>
<path fill="none" stroke="#c6c5fe" d="M742.33,-103.75C742.33,-103.75 581.67,-103.75 581.67,-103.75 577.71,-103.75 573.75,-99.79 573.75,-95.83 573.75,-95.83 573.75,-87.92 573.75,-87.92 573.75,-83.96 577.71,-80 581.67,-80 581.67,-80 742.33,-80 742.33,-80 746.29,-80 750.25,-83.96 750.25,-87.92 750.25,-87.92 750.25,-95.83 750.25,-95.83 750.25,-99.79 746.29,-103.75 742.33,-103.75"/>
<text xml:space="preserve" text-anchor="middle" x="662" y="-86.45" font-family="Arial" font-size="14.00" fill="#c6c5fe">data/localStorageHistory.ts</text>
</g>
<!-- components/DailyRecordForm.tsx&#45;&gt;data/localStorageHistory.ts -->
<g id="edge8" class="edge">
<title>components/DailyRecordForm.tsx&#45;&gt;data/localStorageHistory.ts</title>
<path fill="none" stroke="#757575" d="M453.29,-78.79C488.7,-81.02 527.72,-83.48 562.28,-85.65"/>
<polygon fill="#757575" stroke="#757575" points="561.63,-89.12 571.83,-86.26 562.07,-82.13 561.63,-89.12"/>
</g>
<!-- domain/DailyRecord.ts -->
<g id="node11" class="node">
<title>domain/DailyRecord.ts</title>
<path fill="none" stroke="#cfffac" d="M1297.83,-101.75C1297.83,-101.75 1161.17,-101.75 1161.17,-101.75 1157.21,-101.75 1153.25,-97.79 1153.25,-93.83 1153.25,-93.83 1153.25,-85.92 1153.25,-85.92 1153.25,-81.96 1157.21,-78 1161.17,-78 1161.17,-78 1297.83,-78 1297.83,-78 1301.79,-78 1305.75,-81.96 1305.75,-85.92 1305.75,-85.92 1305.75,-93.83 1305.75,-93.83 1305.75,-97.79 1301.79,-101.75 1297.83,-101.75"/>
<text xml:space="preserve" text-anchor="middle" x="1229.5" y="-84.45" font-family="Arial" font-size="14.00" fill="#cfffac">domain/DailyRecord.ts</text>
</g>
<!-- components/DailyRecordForm.tsx&#45;&gt;domain/DailyRecord.ts -->
<g id="edge9" class="edge">
<title>components/DailyRecordForm.tsx&#45;&gt;domain/DailyRecord.ts</title>
<path fill="none" stroke="#757575" d="M453.17,-71.04C465.26,-70.97 477.39,-70.91 489,-70.88 642.78,-70.35 681.27,-67.17 835,-70.88 940.58,-73.42 1061.95,-79.81 1141.65,-84.48"/>
<polygon fill="#757575" stroke="#757575" points="1141.4,-87.97 1151.59,-85.06 1141.82,-80.98 1141.4,-87.97"/>
</g>
<!-- domain/formatDailyRecord.ts -->
<g id="node12" class="node">
<title>domain/formatDailyRecord.ts</title>
<path fill="none" stroke="#c6c5fe" d="M1081.96,-23.75C1081.96,-23.75 906.29,-23.75 906.29,-23.75 902.33,-23.75 898.38,-19.79 898.38,-15.83 898.38,-15.83 898.38,-7.92 898.38,-7.92 898.38,-3.96 902.33,0 906.29,0 906.29,0 1081.96,0 1081.96,0 1085.92,0 1089.88,-3.96 1089.88,-7.92 1089.88,-7.92 1089.88,-15.83 1089.88,-15.83 1089.88,-19.79 1085.92,-23.75 1081.96,-23.75"/>
<text xml:space="preserve" text-anchor="middle" x="994.12" y="-6.45" font-family="Arial" font-size="14.00" fill="#c6c5fe">domain/formatDailyRecord.ts</text>
</g>
<!-- components/DailyRecordForm.tsx&#45;&gt;domain/formatDailyRecord.ts -->
<g id="edge10" class="edge">
<title>components/DailyRecordForm.tsx&#45;&gt;domain/formatDailyRecord.ts</title>
<path fill="none" stroke="#757575" d="M387.14,-59.56C415.82,-51.97 454.35,-42.78 489,-37.88 625.54,-18.54 784.69,-13.15 887.07,-11.87"/>
<polygon fill="#757575" stroke="#757575" points="886.86,-15.37 896.82,-11.76 886.78,-8.37 886.86,-15.37"/>
</g>
<!-- domain/history.ts -->
<g id="node13" class="node">
<title>domain/history.ts</title>
<path fill="none" stroke="#c6c5fe" d="M1045.21,-141.75C1045.21,-141.75 943.04,-141.75 943.04,-141.75 939.08,-141.75 935.12,-137.79 935.12,-133.83 935.12,-133.83 935.12,-125.92 935.12,-125.92 935.12,-121.96 939.08,-118 943.04,-118 943.04,-118 1045.21,-118 1045.21,-118 1049.17,-118 1053.12,-121.96 1053.12,-125.92 1053.12,-125.92 1053.12,-133.83 1053.12,-133.83 1053.12,-137.79 1049.17,-141.75 1045.21,-141.75"/>
<text xml:space="preserve" text-anchor="middle" x="994.12" y="-124.45" font-family="Arial" font-size="14.00" fill="#c6c5fe">domain/history.ts</text>
</g>
<!-- components/DailyRecordForm.tsx&#45;&gt;domain/history.ts -->
<g id="edge11" class="edge">
<title>components/DailyRecordForm.tsx&#45;&gt;domain/history.ts</title>
<path fill="none" stroke="#757575" d="M423.88,-84.23C433.81,-86.65 443.73,-89.51 453,-92.88 470.2,-99.12 471.36,-107.99 489,-112.88 639.38,-154.56 824.66,-146.45 923.4,-137.67"/>
<polygon fill="#757575" stroke="#757575" points="923.57,-141.17 933.21,-136.77 922.93,-134.2 923.57,-141.17"/>
</g>
<!-- app/dailyRecordService.ts -->
<g id="node4" class="node">
<title>app/dailyRecordService.ts</title>
<path fill="none" stroke="#c6c5fe" d="M421.08,-302.75C421.08,-302.75 264.17,-302.75 264.17,-302.75 260.21,-302.75 256.25,-298.79 256.25,-294.83 256.25,-294.83 256.25,-286.92 256.25,-286.92 256.25,-282.96 260.21,-279 264.17,-279 264.17,-279 421.08,-279 421.08,-279 425.04,-279 429,-282.96 429,-286.92 429,-286.92 429,-294.83 429,-294.83 429,-298.79 425.04,-302.75 421.08,-302.75"/>
<text xml:space="preserve" text-anchor="middle" x="342.62" y="-285.45" font-family="Arial" font-size="14.00" fill="#c6c5fe">app/dailyRecordService.ts</text>
</g>
<!-- data/dailyRecordRepository.localStorage.ts -->
<g id="node5" class="node">
<title>data/dailyRecordRepository.localStorage.ts</title>
<path fill="none" stroke="#c6c5fe" d="M791.08,-223.75C791.08,-223.75 532.92,-223.75 532.92,-223.75 528.96,-223.75 525,-219.79 525,-215.83 525,-215.83 525,-207.92 525,-207.92 525,-203.96 528.96,-200 532.92,-200 532.92,-200 791.08,-200 791.08,-200 795.04,-200 799,-203.96 799,-207.92 799,-207.92 799,-215.83 799,-215.83 799,-219.79 795.04,-223.75 791.08,-223.75"/>
<text xml:space="preserve" text-anchor="middle" x="662" y="-206.45" font-family="Arial" font-size="14.00" fill="#c6c5fe">data/dailyRecordRepository.localStorage.ts</text>
</g>
<!-- app/dailyRecordService.ts&#45;&gt;data/dailyRecordRepository.localStorage.ts -->
<g id="edge3" class="edge">
<title>app/dailyRecordService.ts&#45;&gt;data/dailyRecordRepository.localStorage.ts</title>
<path fill="none" stroke="#757575" d="M372.91,-278.56C401.91,-266.8 447.83,-249.37 489,-238.88 508.65,-233.87 529.81,-229.63 550.34,-226.1"/>
<polygon fill="#757575" stroke="#757575" points="550.88,-229.56 560.17,-224.46 549.73,-222.65 550.88,-229.56"/>
</g>
<!-- domain/factories/createEmptyDailyRecordAggregate.ts -->
<g id="node6" class="node">
<title>domain/factories/createEmptyDailyRecordAggregate.ts</title>
<path fill="none" stroke="#c6c5fe" d="M827.08,-384.75C827.08,-384.75 496.92,-384.75 496.92,-384.75 492.96,-384.75 489,-380.79 489,-376.83 489,-376.83 489,-368.92 489,-368.92 489,-364.96 492.96,-361 496.92,-361 496.92,-361 827.08,-361 827.08,-361 831.04,-361 835,-364.96 835,-368.92 835,-368.92 835,-376.83 835,-376.83 835,-380.79 831.04,-384.75 827.08,-384.75"/>
<text xml:space="preserve" text-anchor="middle" x="662" y="-367.45" font-family="Arial" font-size="14.00" fill="#c6c5fe">domain/factories/createEmptyDailyRecordAggregate.ts</text>
</g>
<!-- app/dailyRecordService.ts&#45;&gt;domain/factories/createEmptyDailyRecordAggregate.ts -->
<g id="edge4" class="edge">
<title>app/dailyRecordService.ts&#45;&gt;domain/factories/createEmptyDailyRecordAggregate.ts</title>
<path fill="none" stroke="#757575" d="M367.09,-303.11C395.26,-317.23 444.29,-340.01 489,-351.88 498.3,-354.34 507.95,-356.52 517.73,-358.44"/>
<polygon fill="#757575" stroke="#757575" points="516.86,-361.84 527.33,-360.23 518.14,-354.96 516.86,-361.84"/>
</g>
<!-- domain/normalizers/normalizeExerciseOrders.ts -->
<g id="node7" class="node">
<title>domain/normalizers/normalizeExerciseOrders.ts</title>
<path fill="none" stroke="#c6c5fe" d="M807.21,-342.75C807.21,-342.75 516.79,-342.75 516.79,-342.75 512.83,-342.75 508.88,-338.79 508.88,-334.83 508.88,-334.83 508.88,-326.92 508.88,-326.92 508.88,-322.96 512.83,-319 516.79,-319 516.79,-319 807.21,-319 807.21,-319 811.17,-319 815.12,-322.96 815.12,-326.92 815.12,-326.92 815.12,-334.83 815.12,-334.83 815.12,-338.79 811.17,-342.75 807.21,-342.75"/>
<text xml:space="preserve" text-anchor="middle" x="662" y="-325.45" font-family="Arial" font-size="14.00" fill="#c6c5fe">domain/normalizers/normalizeExerciseOrders.ts</text>
</g>
<!-- app/dailyRecordService.ts&#45;&gt;domain/normalizers/normalizeExerciseOrders.ts -->
<g id="edge5" class="edge">
<title>app/dailyRecordService.ts&#45;&gt;domain/normalizers/normalizeExerciseOrders.ts</title>
<path fill="none" stroke="#757575" d="M429.09,-301.65C466.85,-306.41 511.7,-312.06 551.84,-317.12"/>
<polygon fill="#757575" stroke="#757575" points="551.17,-320.56 561.53,-318.34 552.04,-313.61 551.17,-320.56"/>
</g>
<!-- domain/type.ts -->
<g id="node8" class="node">
<title>domain/type.ts</title>
<path fill="none" stroke="#cfffac" d="M1273.83,-283.75C1273.83,-283.75 1185.17,-283.75 1185.17,-283.75 1181.21,-283.75 1177.25,-279.79 1177.25,-275.83 1177.25,-275.83 1177.25,-267.92 1177.25,-267.92 1177.25,-263.96 1181.21,-260 1185.17,-260 1185.17,-260 1273.83,-260 1273.83,-260 1277.79,-260 1281.75,-263.96 1281.75,-267.92 1281.75,-267.92 1281.75,-275.83 1281.75,-275.83 1281.75,-279.79 1277.79,-283.75 1273.83,-283.75"/>
<text xml:space="preserve" text-anchor="middle" x="1229.5" y="-266.45" font-family="Arial" font-size="14.00" fill="#cfffac">domain/type.ts</text>
</g>
<!-- app/dailyRecordService.ts&#45;&gt;domain/type.ts -->
<g id="edge6" class="edge">
<title>app/dailyRecordService.ts&#45;&gt;domain/type.ts</title>
<path fill="none" stroke="#757575" d="M429.27,-289.04C606.57,-285.23 1010.2,-276.56 1165.76,-273.22"/>
<polygon fill="#757575" stroke="#757575" points="1165.52,-276.73 1175.45,-273.01 1165.37,-269.73 1165.52,-276.73"/>
</g>
<!-- ports/DailyRecordRepository.ts -->
<g id="node9" class="node">
<title>ports/DailyRecordRepository.ts</title>
<path fill="none" stroke="#c6c5fe" d="M1086.83,-263.75C1086.83,-263.75 901.42,-263.75 901.42,-263.75 897.46,-263.75 893.5,-259.79 893.5,-255.83 893.5,-255.83 893.5,-247.92 893.5,-247.92 893.5,-243.96 897.46,-240 901.42,-240 901.42,-240 1086.83,-240 1086.83,-240 1090.79,-240 1094.75,-243.96 1094.75,-247.92 1094.75,-247.92 1094.75,-255.83 1094.75,-255.83 1094.75,-259.79 1090.79,-263.75 1086.83,-263.75"/>
<text xml:space="preserve" text-anchor="middle" x="994.12" y="-246.45" font-family="Arial" font-size="14.00" fill="#c6c5fe">ports/DailyRecordRepository.ts</text>
</g>
<!-- app/dailyRecordService.ts&#45;&gt;ports/DailyRecordRepository.ts -->
<g id="edge7" class="edge">
<title>app/dailyRecordService.ts&#45;&gt;ports/DailyRecordRepository.ts</title>
<path fill="none" stroke="#757575" d="M429.28,-281.96C448.89,-280.1 469.65,-278.29 489,-276.88 623.99,-267.03 779.61,-259.97 881.82,-255.91"/>
<polygon fill="#757575" stroke="#757575" points="881.72,-259.42 891.57,-255.53 881.44,-252.42 881.72,-259.42"/>
</g>
<!-- data/dailyRecordRepository.localStorage.ts&#45;&gt;domain/type.ts -->
<g id="edge13" class="edge">
<title>data/dailyRecordRepository.localStorage.ts&#45;&gt;domain/type.ts</title>
<path fill="none" stroke="#757575" d="M799.47,-206.6C890.37,-205.77 1011.99,-209.82 1117.25,-230.88 1142.86,-236 1170.41,-246.12 1191.69,-255.02"/>
<polygon fill="#757575" stroke="#757575" points="1190.24,-258.2 1200.81,-258.93 1193,-251.77 1190.24,-258.2"/>
</g>
<!-- data/dailyRecordRepository.localStorage.ts&#45;&gt;ports/DailyRecordRepository.ts -->
<g id="edge14" class="edge">
<title>data/dailyRecordRepository.localStorage.ts&#45;&gt;ports/DailyRecordRepository.ts</title>
<path fill="none" stroke="#757575" d="M764.74,-224.2C801.9,-228.71 844.11,-233.82 882.04,-238.41"/>
<polygon fill="#757575" stroke="#757575" points="881.29,-241.85 891.63,-239.58 882.13,-234.9 881.29,-241.85"/>
</g>
<!-- domain/storage/dailyRecordStorage.ts -->
<g id="node14" class="node">
<title>domain/storage/dailyRecordStorage.ts</title>
<path fill="none" stroke="#c6c5fe" d="M1109.33,-183.75C1109.33,-183.75 878.92,-183.75 878.92,-183.75 874.96,-183.75 871,-179.79 871,-175.83 871,-175.83 871,-167.92 871,-167.92 871,-163.96 874.96,-160 878.92,-160 878.92,-160 1109.33,-160 1109.33,-160 1113.29,-160 1117.25,-163.96 1117.25,-167.92 1117.25,-167.92 1117.25,-175.83 1117.25,-175.83 1117.25,-179.79 1113.29,-183.75 1109.33,-183.75"/>
<text xml:space="preserve" text-anchor="middle" x="994.12" y="-166.45" font-family="Arial" font-size="14.00" fill="#c6c5fe">domain/storage/dailyRecordStorage.ts</text>
</g>
<!-- data/dailyRecordRepository.localStorage.ts&#45;&gt;domain/storage/dailyRecordStorage.ts -->
<g id="edge12" class="edge">
<title>data/dailyRecordRepository.localStorage.ts&#45;&gt;domain/storage/dailyRecordStorage.ts</title>
<path fill="none" stroke="#757575" d="M764.74,-199.55C801.3,-195.12 842.74,-190.1 880.19,-185.56"/>
<polygon fill="#757575" stroke="#757575" points="880.14,-189.09 889.65,-184.41 879.3,-182.14 880.14,-189.09"/>
</g>
<!-- domain/factories/createEmptyDailyRecordAggregate.ts&#45;&gt;domain/type.ts -->
<g id="edge17" class="edge">
<title>domain/factories/createEmptyDailyRecordAggregate.ts&#45;&gt;domain/type.ts</title>
<path fill="none" stroke="#757575" d="M835.43,-373.59C921.64,-369.89 1026.64,-359.14 1117.25,-331.88 1148.09,-322.59 1180.13,-304.24 1201.86,-290.26"/>
<polygon fill="#757575" stroke="#757575" points="1203.67,-293.26 1210.1,-284.83 1199.82,-287.41 1203.67,-293.26"/>
</g>
<!-- domain/normalizers/normalizeExerciseOrders.ts&#45;&gt;domain/type.ts -->
<g id="edge20" class="edge">
<title>domain/normalizers/normalizeExerciseOrders.ts&#45;&gt;domain/type.ts</title>
<path fill="none" stroke="#757575" d="M815.47,-331.64C904.15,-329.81 1017.71,-323.56 1117.25,-305.88 1140.07,-301.82 1164.78,-294.57 1185.11,-287.8"/>
<polygon fill="#757575" stroke="#757575" points="1186.14,-291.15 1194.48,-284.61 1183.88,-284.52 1186.14,-291.15"/>
</g>
<!-- ports/DailyRecordRepository.ts&#45;&gt;domain/type.ts -->
<g id="edge25" class="edge">
<title>ports/DailyRecordRepository.ts&#45;&gt;domain/type.ts</title>
<path fill="none" stroke="#757575" d="M1095.11,-260.44C1119.02,-262.49 1143.89,-264.62 1165.58,-266.48"/>
<polygon fill="#757575" stroke="#757575" points="1165.17,-269.96 1175.44,-267.33 1165.77,-262.99 1165.17,-269.96"/>
</g>
<!-- data/localStorageHistory.ts&#45;&gt;domain/DailyRecord.ts -->
<g id="edge15" class="edge">
<title>data/localStorageHistory.ts&#45;&gt;domain/DailyRecord.ts</title>
<path fill="none" stroke="#757575" d="M750.74,-91.56C857.15,-91.19 1035.4,-90.56 1141.49,-90.18"/>
<polygon fill="#757575" stroke="#757575" points="1141.29,-93.68 1151.27,-90.15 1141.26,-86.68 1141.29,-93.68"/>
</g>
<!-- data/localStorageHistory.ts&#45;&gt;domain/history.ts -->
<g id="edge16" class="edge">
<title>data/localStorageHistory.ts&#45;&gt;domain/history.ts</title>
<path fill="none" stroke="#757575" d="M750.6,-101.96C804.65,-108.18 873.03,-116.05 923.4,-121.85"/>
<polygon fill="#757575" stroke="#757575" points="922.98,-125.32 933.32,-122.99 923.78,-118.37 922.98,-125.32"/>
</g>
<!-- domain/formatDailyRecord.ts&#45;&gt;domain/DailyRecord.ts -->
<g id="edge18" class="edge">
<title>domain/formatDailyRecord.ts&#45;&gt;domain/DailyRecord.ts</title>
<path fill="none" stroke="#757575" d="M1066.57,-24.24C1083.39,-27.93 1101.12,-32.47 1117.25,-37.88 1144.7,-47.08 1174.33,-61.15 1196.1,-72.33"/>
<polygon fill="#757575" stroke="#757575" points="1194.29,-75.33 1204.77,-76.86 1197.53,-69.13 1194.29,-75.33"/>
</g>
<!-- domain/history.ts&#45;&gt;domain/DailyRecord.ts -->
<g id="edge19" class="edge">
<title>domain/history.ts&#45;&gt;domain/DailyRecord.ts</title>
<path fill="none" stroke="#757575" d="M1053.41,-119.88C1081.19,-115.12 1114.91,-109.34 1145.32,-104.13"/>
<polygon fill="#757575" stroke="#757575" points="1145.6,-107.64 1154.86,-102.5 1144.42,-100.74 1145.6,-107.64"/>
</g>
<!-- domain/storage/dailyRecordStorage.ts&#45;&gt;domain/type.ts -->
<g id="edge22" class="edge">
<title>domain/storage/dailyRecordStorage.ts&#45;&gt;domain/type.ts</title>
<path fill="none" stroke="#757575" d="M1074.32,-184.17C1088.9,-187.71 1103.76,-192.2 1117.25,-197.88 1150.22,-211.75 1183.83,-235.75 1205.35,-252.65"/>
<polygon fill="#757575" stroke="#757575" points="1202.89,-255.17 1212.89,-258.69 1207.27,-249.71 1202.89,-255.17"/>
</g>
<!-- domain/storage/dailyRecordStorage.ts&#45;&gt;domain/DailyRecord.ts -->
<g id="edge21" class="edge">
<title>domain/storage/dailyRecordStorage.ts&#45;&gt;domain/DailyRecord.ts</title>
<path fill="none" stroke="#757575" d="M1086.67,-159.55C1097.11,-157.14 1107.5,-154.28 1117.25,-150.88 1147.41,-140.34 1179.1,-122.17 1200.91,-108.39"/>
<polygon fill="#757575" stroke="#757575" points="1202.7,-111.4 1209.21,-103.04 1198.91,-105.51 1202.7,-111.4"/>
</g>
<!-- index.css -->
<g id="node15" class="node">
<title>index.css</title>
<path fill="none" stroke="#cfffac" d="M188.33,-62.75C188.33,-62.75 131.92,-62.75 131.92,-62.75 127.96,-62.75 124,-58.79 124,-54.83 124,-54.83 124,-46.92 124,-46.92 124,-42.96 127.96,-39 131.92,-39 131.92,-39 188.33,-39 188.33,-39 192.29,-39 196.25,-42.96 196.25,-46.92 196.25,-46.92 196.25,-54.83 196.25,-54.83 196.25,-58.79 192.29,-62.75 188.33,-62.75"/>
<text xml:space="preserve" text-anchor="middle" x="160.12" y="-45.45" font-family="Arial" font-size="14.00" fill="#cfffac">index.css</text>
</g>
<!-- main.tsx -->
<g id="node16" class="node">
<title>main.tsx</title>
<path fill="none" stroke="#c6c5fe" d="M69.58,-83.75C69.58,-83.75 18.42,-83.75 18.42,-83.75 14.46,-83.75 10.5,-79.79 10.5,-75.83 10.5,-75.83 10.5,-67.92 10.5,-67.92 10.5,-63.96 14.46,-60 18.42,-60 18.42,-60 69.58,-60 69.58,-60 73.54,-60 77.5,-63.96 77.5,-67.92 77.5,-67.92 77.5,-75.83 77.5,-75.83 77.5,-79.79 73.54,-83.75 69.58,-83.75"/>
<text xml:space="preserve" text-anchor="middle" x="44" y="-66.45" font-family="Arial" font-size="14.00" fill="#c6c5fe">main.tsx</text>
</g>
<!-- main.tsx&#45;&gt;App.tsx -->
<g id="edge23" class="edge">
<title>main.tsx&#45;&gt;App.tsx</title>
<path fill="none" stroke="#757575" d="M77.7,-77.89C90.24,-80.2 104.7,-82.86 117.92,-85.29"/>
<polygon fill="#757575" stroke="#757575" points="117.19,-88.72 127.66,-87.09 118.46,-81.83 117.19,-88.72"/>
</g>
<!-- main.tsx&#45;&gt;index.css -->
<g id="edge24" class="edge">
<title>main.tsx&#45;&gt;index.css</title>
<path fill="none" stroke="#757575" d="M77.7,-65.86C88.59,-63.85 100.92,-61.59 112.64,-59.43"/>
<polygon fill="#757575" stroke="#757575" points="112.93,-62.93 122.13,-57.68 111.66,-56.05 112.93,-62.93"/>
</g>
<!-- vite&#45;env.d.ts -->
<g id="node17" class="node">
<title>vite&#45;env.d.ts</title>
<path fill="none" stroke="#cfffac" d="M80.08,-125.75C80.08,-125.75 7.92,-125.75 7.92,-125.75 3.96,-125.75 0,-121.79 0,-117.83 0,-117.83 0,-109.92 0,-109.92 0,-105.96 3.96,-102 7.92,-102 7.92,-102 80.08,-102 80.08,-102 84.04,-102 88,-105.96 88,-109.92 88,-109.92 88,-117.83 88,-117.83 88,-121.79 84.04,-125.75 80.08,-125.75"/>
<text xml:space="preserve" text-anchor="middle" x="44" y="-108.45" font-family="Arial" font-size="14.00" fill="#cfffac">vite&#45;env.d.ts</text>
</g>
</g>
</svg>
