<?xml version="1.0" encoding="UTF-8" standalone="no"?>
<!DOCTYPE svg PUBLIC "-//W3C//DTD SVG 1.1//EN"
 "http://www.w3.org/Graphics/SVG/1.1/DTD/svg11.dtd">
<!-- Generated by graphviz version 14.1.2 (20260124.0452)
 -->
<!-- Title: G Pages: 1 -->
<svg width="1918pt" height="979pt"
 viewBox="0.00 0.00 1918.00 979.00" xmlns="http://www.w3.org/2000/svg" xmlns:xlink="http://www.w3.org/1999/xlink">
<g id="graph0" class="graph" transform="scale(1 1) rotate(0) translate(21.6 957.03)">
<title>G</title>
<polygon fill="#111111" stroke="none" points="-21.6,21.6 -21.6,-957.03 1896.85,-957.03 1896.85,21.6 -21.6,21.6"/>
<!-- App.tsx -->
<g id="node1" class="node">
<title>App.tsx</title>
<path fill="none" stroke="#c6c5fe" d="M182.71,-565.86C182.71,-565.86 137.54,-565.86 137.54,-565.86 133.58,-565.86 129.62,-561.9 129.62,-557.94 129.62,-557.94 129.62,-550.02 129.62,-550.02 129.62,-546.07 133.58,-542.11 137.54,-542.11 137.54,-542.11 182.71,-542.11 182.71,-542.11 186.67,-542.11 190.62,-546.07 190.62,-550.02 190.62,-550.02 190.62,-557.94 190.62,-557.94 190.62,-561.9 186.67,-565.86 182.71,-565.86"/>
<text xml:space="preserve" text-anchor="middle" x="160.12" y="-548.56" font-family="Arial" font-size="14.00" fill="#c6c5fe">App.tsx</text>
</g>
<!-- ui/DailyRecordFormV110.tsx -->
<g id="node2" class="node">
<title>ui/DailyRecordFormV110.tsx</title>
<path fill="none" stroke="#c6c5fe" d="M417.33,-299.86C417.33,-299.86 245.42,-299.86 245.42,-299.86 241.46,-299.86 237.5,-295.9 237.5,-291.94 237.5,-291.94 237.5,-284.02 237.5,-284.02 237.5,-280.07 241.46,-276.11 245.42,-276.11 245.42,-276.11 417.33,-276.11 417.33,-276.11 421.29,-276.11 425.25,-280.07 425.25,-284.02 425.25,-284.02 425.25,-291.94 425.25,-291.94 425.25,-295.9 421.29,-299.86 417.33,-299.86"/>
<text xml:space="preserve" text-anchor="middle" x="331.38" y="-282.56" font-family="Arial" font-size="14.00" fill="#c6c5fe">ui/DailyRecordFormV110.tsx</text>
</g>
<!-- App.tsx&#45;&gt;ui/DailyRecordFormV110.tsx -->
<g id="edge1" class="edge">
<title>App.tsx&#45;&gt;ui/DailyRecordFormV110.tsx</title>
<path fill="none" stroke="#757575" d="M185.44,-541.79C189.32,-539.21 193.1,-536.26 196.25,-532.98 262.15,-464.53 305.75,-357.33 322.57,-310.81"/>
<polygon fill="#757575" stroke="#757575" points="325.82,-312.12 325.85,-301.53 319.22,-309.79 325.82,-312.12"/>
</g>
<!-- app/dailyRecordService.ts -->
<g id="node4" class="node">
<title>app/dailyRecordService.ts</title>
<path fill="none" stroke="#c6c5fe" d="M731.83,-673.86C731.83,-673.86 574.92,-673.86 574.92,-673.86 570.96,-673.86 567,-669.9 567,-665.94 567,-665.94 567,-658.02 567,-658.02 567,-654.07 570.96,-650.11 574.92,-650.11 574.92,-650.11 731.83,-650.11 731.83,-650.11 735.79,-650.11 739.75,-654.07 739.75,-658.02 739.75,-658.02 739.75,-665.94 739.75,-665.94 739.75,-669.9 735.79,-673.86 731.83,-673.86"/>
<text xml:space="preserve" text-anchor="middle" x="653.38" y="-656.56" font-family="Arial" font-size="14.00" fill="#c6c5fe">app/dailyRecordService.ts</text>
</g>
<!-- ui/DailyRecordFormV110.tsx&#45;&gt;app/dailyRecordService.ts -->
<g id="edge39" class="edge">
<title>ui/DailyRecordFormV110.tsx&#45;&gt;app/dailyRecordService.ts</title>
<path fill="none" stroke="#757575" d="M336.24,-300.29C349.13,-339.75 393.96,-465.16 466.5,-543.98 508.79,-589.94 572.82,-625.3 613.61,-644.87"/>
<polygon fill="#757575" stroke="#757575" points="612.05,-648.01 622.58,-649.09 615.02,-641.67 612.05,-648.01"/>
</g>
<!-- domain/type.ts -->
<g id="node5" class="node">
<title>domain/type.ts</title>
<path fill="none" stroke="#cfffac" d="M1814.83,-437.86C1814.83,-437.86 1726.17,-437.86 1726.17,-437.86 1722.21,-437.86 1718.25,-433.9 1718.25,-429.94 1718.25,-429.94 1718.25,-422.02 1718.25,-422.02 1718.25,-418.07 1722.21,-414.11 1726.17,-414.11 1726.17,-414.11 1814.83,-414.11 1814.83,-414.11 1818.79,-414.11 1822.75,-418.07 1822.75,-422.02 1822.75,-422.02 1822.75,-429.94 1822.75,-429.94 1822.75,-433.9 1818.79,-437.86 1814.83,-437.86"/>
<text xml:space="preserve" text-anchor="middle" x="1770.5" y="-420.56" font-family="Arial" font-size="14.00" fill="#cfffac">domain/type.ts</text>
</g>
<!-- ui/DailyRecordFormV110.tsx&#45;&gt;domain/type.ts -->
<g id="edge41" class="edge">
<title>ui/DailyRecordFormV110.tsx&#45;&gt;domain/type.ts</title>
<path fill="none" stroke="#757575" d="M425.57,-289.65C713.45,-294.99 1572.73,-312.4 1629.75,-330.98 1677.16,-346.43 1723.21,-383.24 1748.82,-406.24"/>
<polygon fill="#757575" stroke="#757575" points="1746.14,-408.53 1755.88,-412.72 1750.87,-403.38 1746.14,-408.53"/>
</g>
<!-- domain/report/DailyRecordReportView.tsx -->
<g id="node19" class="node">
<title>domain/report/DailyRecordReportView.tsx</title>
<path fill="none" stroke="#c6c5fe" d="M1187.71,-119.86C1187.71,-119.86 936.29,-119.86 936.29,-119.86 932.33,-119.86 928.38,-115.9 928.38,-111.94 928.38,-111.94 928.38,-104.02 928.38,-104.02 928.38,-100.07 932.33,-96.11 936.29,-96.11 936.29,-96.11 1187.71,-96.11 1187.71,-96.11 1191.67,-96.11 1195.62,-100.07 1195.62,-104.02 1195.62,-104.02 1195.62,-111.94 1195.62,-111.94 1195.62,-115.9 1191.67,-119.86 1187.71,-119.86"/>
<text xml:space="preserve" text-anchor="middle" x="1062" y="-102.56" font-family="Arial" font-size="14.00" fill="#c6c5fe">domain/report/DailyRecordReportView.tsx</text>
</g>
<!-- ui/DailyRecordFormV110.tsx&#45;&gt;domain/report/DailyRecordReportView.tsx -->
<g id="edge40" class="edge">
<title>ui/DailyRecordFormV110.tsx&#45;&gt;domain/report/DailyRecordReportView.tsx</title>
<path fill="none" stroke="#757575" d="M347.86,-275.69C371.83,-257.32 420.01,-222.95 466.5,-204.98 613.47,-148.18 793.38,-124.64 916.54,-114.89"/>
<polygon fill="#757575" stroke="#757575" points="916.69,-118.39 926.39,-114.13 916.16,-111.41 916.69,-118.39"/>
</g>
<!-- ui/exercise/ExerciseSessionsEditor.tsx -->
<g id="node24" class="node">
<title>ui/exercise/ExerciseSessionsEditor.tsx</title>
<path fill="none" stroke="#c6c5fe" d="M768.58,-279.86C768.58,-279.86 538.17,-279.86 538.17,-279.86 534.21,-279.86 530.25,-275.9 530.25,-271.94 530.25,-271.94 530.25,-264.02 530.25,-264.02 530.25,-260.07 534.21,-256.11 538.17,-256.11 538.17,-256.11 768.58,-256.11 768.58,-256.11 772.54,-256.11 776.5,-260.07 776.5,-264.02 776.5,-264.02 776.5,-271.94 776.5,-271.94 776.5,-275.9 772.54,-279.86 768.58,-279.86"/>
<text xml:space="preserve" text-anchor="middle" x="653.38" y="-262.56" font-family="Arial" font-size="14.00" fill="#c6c5fe">ui/exercise/ExerciseSessionsEditor.tsx</text>
</g>
<!-- ui/DailyRecordFormV110.tsx&#45;&gt;ui/exercise/ExerciseSessionsEditor.tsx -->
<g id="edge42" class="edge">
<title>ui/DailyRecordFormV110.tsx&#45;&gt;ui/exercise/ExerciseSessionsEditor.tsx</title>
<path fill="none" stroke="#757575" d="M425.36,-282.17C454.45,-280.35 487.15,-278.31 518.47,-276.35"/>
<polygon fill="#757575" stroke="#757575" points="518.67,-279.85 528.43,-275.73 518.23,-272.86 518.67,-279.85"/>
</g>
<!-- ui/meal/MealEditor.tsx -->
<g id="node25" class="node">
<title>ui/meal/MealEditor.tsx</title>
<path fill="none" stroke="#c6c5fe" d="M720.21,-237.86C720.21,-237.86 586.54,-237.86 586.54,-237.86 582.58,-237.86 578.62,-233.9 578.62,-229.94 578.62,-229.94 578.62,-222.02 578.62,-222.02 578.62,-218.07 582.58,-214.11 586.54,-214.11 586.54,-214.11 720.21,-214.11 720.21,-214.11 724.17,-214.11 728.12,-218.07 728.12,-222.02 728.12,-222.02 728.12,-229.94 728.12,-229.94 728.12,-233.9 724.17,-237.86 720.21,-237.86"/>
<text xml:space="preserve" text-anchor="middle" x="653.38" y="-220.56" font-family="Arial" font-size="14.00" fill="#c6c5fe">ui/meal/MealEditor.tsx</text>
</g>
<!-- ui/DailyRecordFormV110.tsx&#45;&gt;ui/meal/MealEditor.tsx -->
<g id="edge43" class="edge">
<title>ui/DailyRecordFormV110.tsx&#45;&gt;ui/meal/MealEditor.tsx</title>
<path fill="none" stroke="#757575" d="M366.38,-275.68C393.23,-266.44 431.81,-254.18 466.5,-246.98 499.07,-240.22 535.33,-235.51 567.12,-232.29"/>
<polygon fill="#757575" stroke="#757575" points="567.04,-235.82 576.65,-231.36 566.36,-228.85 567.04,-235.82"/>
</g>
<!-- ui/weights/WeightEditor.tsx -->
<g id="node26" class="node">
<title>ui/weights/WeightEditor.tsx</title>
<path fill="none" stroke="#c6c5fe" d="M734.08,-73.86C734.08,-73.86 572.67,-73.86 572.67,-73.86 568.71,-73.86 564.75,-69.9 564.75,-65.94 564.75,-65.94 564.75,-58.02 564.75,-58.02 564.75,-54.07 568.71,-50.11 572.67,-50.11 572.67,-50.11 734.08,-50.11 734.08,-50.11 738.04,-50.11 742,-54.07 742,-58.02 742,-58.02 742,-65.94 742,-65.94 742,-69.9 738.04,-73.86 734.08,-73.86"/>
<text xml:space="preserve" text-anchor="middle" x="653.38" y="-56.56" font-family="Arial" font-size="14.00" fill="#c6c5fe">ui/weights/WeightEditor.tsx</text>
</g>
<!-- ui/DailyRecordFormV110.tsx&#45;&gt;ui/weights/WeightEditor.tsx -->
<g id="edge44" class="edge">
<title>ui/DailyRecordFormV110.tsx&#45;&gt;ui/weights/WeightEditor.tsx</title>
<path fill="none" stroke="#757575" d="M340.83,-276.01C360.27,-249.2 410.82,-183.58 466.5,-143.98 508.32,-114.24 562.63,-91.82 601.74,-78.01"/>
<polygon fill="#757575" stroke="#757575" points="602.86,-81.32 611.16,-74.75 600.57,-74.71 602.86,-81.32"/>
</g>
<!-- ui/wellness/WellnessEditor.tsx -->
<g id="node27" class="node">
<title>ui/wellness/WellnessEditor.tsx</title>
<path fill="none" stroke="#c6c5fe" d="M743.46,-534.86C743.46,-534.86 563.29,-534.86 563.29,-534.86 559.33,-534.86 555.38,-530.9 555.38,-526.94 555.38,-526.94 555.38,-519.02 555.38,-519.02 555.38,-515.07 559.33,-511.11 563.29,-511.11 563.29,-511.11 743.46,-511.11 743.46,-511.11 747.42,-511.11 751.38,-515.07 751.38,-519.02 751.38,-519.02 751.38,-526.94 751.38,-526.94 751.38,-530.9 747.42,-534.86 743.46,-534.86"/>
<text xml:space="preserve" text-anchor="middle" x="653.38" y="-517.56" font-family="Arial" font-size="14.00" fill="#c6c5fe">ui/wellness/WellnessEditor.tsx</text>
</g>
<!-- ui/DailyRecordFormV110.tsx&#45;&gt;ui/wellness/WellnessEditor.tsx -->
<g id="edge45" class="edge">
<title>ui/DailyRecordFormV110.tsx&#45;&gt;ui/wellness/WellnessEditor.tsx</title>
<path fill="none" stroke="#757575" d="M340.81,-300.22C360.23,-327.62 410.71,-394.78 466.5,-435.98 509.33,-467.62 565.5,-491.97 604.84,-506.76"/>
<polygon fill="#757575" stroke="#757575" points="603.45,-509.97 614.04,-510.15 605.87,-503.4 603.45,-509.97"/>
</g>
<!-- app/dailyRecordService.test.ts -->
<g id="node3" class="node">
<title>app/dailyRecordService.test.ts</title>
<path fill="none" stroke="#c6c5fe" d="M422.58,-752.86C422.58,-752.86 240.17,-752.86 240.17,-752.86 236.21,-752.86 232.25,-748.9 232.25,-744.94 232.25,-744.94 232.25,-737.02 232.25,-737.02 232.25,-733.07 236.21,-729.11 240.17,-729.11 240.17,-729.11 422.58,-729.11 422.58,-729.11 426.54,-729.11 430.5,-733.07 430.5,-737.02 430.5,-737.02 430.5,-744.94 430.5,-744.94 430.5,-748.9 426.54,-752.86 422.58,-752.86"/>
<text xml:space="preserve" text-anchor="middle" x="331.38" y="-735.56" font-family="Arial" font-size="14.00" fill="#c6c5fe">app/dailyRecordService.test.ts</text>
</g>
<!-- app/dailyRecordService.test.ts&#45;&gt;app/dailyRecordService.ts -->
<g id="edge2" class="edge">
<title>app/dailyRecordService.test.ts&#45;&gt;app/dailyRecordService.ts</title>
<path fill="none" stroke="#757575" d="M382.38,-728.64C438.89,-714.69 530.88,-691.98 591.52,-677.01"/>
<polygon fill="#757575" stroke="#757575" points="592.12,-680.46 600.99,-674.67 590.45,-673.67 592.12,-680.46"/>
</g>
<!-- app/dailyRecordService.test.ts&#45;&gt;domain/type.ts -->
<g id="edge3" class="edge">
<title>app/dailyRecordService.test.ts&#45;&gt;domain/type.ts</title>
<path fill="none" stroke="#757575" d="M359.43,-753.16C505.27,-816.81 1206.8,-1097.27 1629.75,-802.98 1750.58,-718.91 1767.17,-517.54 1769.27,-449.16"/>
<polygon fill="#757575" stroke="#757575" points="1772.76,-449.58 1769.48,-439.51 1765.76,-449.43 1772.76,-449.58"/>
</g>
<!-- app/dailyRecordService.ts&#45;&gt;domain/type.ts -->
<g id="edge7" class="edge">
<title>app/dailyRecordService.ts&#45;&gt;domain/type.ts</title>
<path fill="none" stroke="#757575" d="M739.85,-663.55C963.31,-667.05 1552.91,-672.11 1629.75,-629.98 1702.85,-589.9 1745.47,-493.24 1761.78,-448.9"/>
<polygon fill="#757575" stroke="#757575" points="1765.06,-450.13 1765.1,-439.54 1758.46,-447.79 1765.06,-450.13"/>
</g>
<!-- data/dailyRecordRepository.localStorage.ts -->
<g id="node6" class="node">
<title>data/dailyRecordRepository.localStorage.ts</title>
<path fill="none" stroke="#c6c5fe" d="M1191.08,-753.86C1191.08,-753.86 932.92,-753.86 932.92,-753.86 928.96,-753.86 925,-749.9 925,-745.94 925,-745.94 925,-738.02 925,-738.02 925,-734.07 928.96,-730.11 932.92,-730.11 932.92,-730.11 1191.08,-730.11 1191.08,-730.11 1195.04,-730.11 1199,-734.07 1199,-738.02 1199,-738.02 1199,-745.94 1199,-745.94 1199,-749.9 1195.04,-753.86 1191.08,-753.86"/>
<text xml:space="preserve" text-anchor="middle" x="1062" y="-736.56" font-family="Arial" font-size="14.00" fill="#c6c5fe">data/dailyRecordRepository.localStorage.ts</text>
</g>
<!-- app/dailyRecordService.ts&#45;&gt;data/dailyRecordRepository.localStorage.ts -->
<g id="edge4" class="edge">
<title>app/dailyRecordService.ts&#45;&gt;data/dailyRecordRepository.localStorage.ts</title>
<path fill="none" stroke="#757575" d="M700.43,-674.26C745.13,-685.87 814.99,-703.21 876.25,-714.98 901.35,-719.8 928.5,-724.22 954.08,-728.01"/>
<polygon fill="#757575" stroke="#757575" points="953.41,-731.45 963.82,-729.44 954.43,-724.53 953.41,-731.45"/>
</g>
<!-- domain/factories/createEmptyDailyRecordAggregate.ts -->
<g id="node7" class="node">
<title>domain/factories/createEmptyDailyRecordAggregate.ts</title>
<path fill="none" stroke="#c6c5fe" d="M1621.83,-203.86C1621.83,-203.86 1291.67,-203.86 1291.67,-203.86 1287.71,-203.86 1283.75,-199.9 1283.75,-195.94 1283.75,-195.94 1283.75,-188.02 1283.75,-188.02 1283.75,-184.07 1287.71,-180.11 1291.67,-180.11 1291.67,-180.11 1621.83,-180.11 1621.83,-180.11 1625.79,-180.11 1629.75,-184.07 1629.75,-188.02 1629.75,-188.02 1629.75,-195.94 1629.75,-195.94 1629.75,-199.9 1625.79,-203.86 1621.83,-203.86"/>
<text xml:space="preserve" text-anchor="middle" x="1456.75" y="-186.56" font-family="Arial" font-size="14.00" fill="#c6c5fe">domain/factories/createEmptyDailyRecordAggregate.ts</text>
</g>
<!-- app/dailyRecordService.ts&#45;&gt;domain/factories/createEmptyDailyRecordAggregate.ts -->
<g id="edge5" class="edge">
<title>app/dailyRecordService.ts&#45;&gt;domain/factories/createEmptyDailyRecordAggregate.ts</title>
<path fill="none" stroke="#757575" d="M686.99,-649.72C728.61,-632.43 800.03,-596.95 840.25,-543.98 873.67,-499.98 838.95,-465.74 876.25,-424.98 1002.34,-287.21 1221.06,-229.36 1350.71,-206.24"/>
<polygon fill="#757575" stroke="#757575" points="1351.07,-209.73 1360.32,-204.57 1349.87,-202.84 1351.07,-209.73"/>
</g>
<!-- domain/normalizers/normalizeDailyRecordAggregate.ts -->
<g id="node8" class="node">
<title>domain/normalizers/normalizeDailyRecordAggregate.ts</title>
<path fill="none" stroke="#c6c5fe" d="M1228.21,-457.86C1228.21,-457.86 895.79,-457.86 895.79,-457.86 891.83,-457.86 887.88,-453.9 887.88,-449.94 887.88,-449.94 887.88,-442.02 887.88,-442.02 887.88,-438.07 891.83,-434.11 895.79,-434.11 895.79,-434.11 1228.21,-434.11 1228.21,-434.11 1232.17,-434.11 1236.12,-438.07 1236.12,-442.02 1236.12,-442.02 1236.12,-449.94 1236.12,-449.94 1236.12,-453.9 1232.17,-457.86 1228.21,-457.86"/>
<text xml:space="preserve" text-anchor="middle" x="1062" y="-440.56" font-family="Arial" font-size="14.00" fill="#c6c5fe">domain/normalizers/normalizeDailyRecordAggregate.ts</text>
</g>
<!-- app/dailyRecordService.ts&#45;&gt;domain/normalizers/normalizeDailyRecordAggregate.ts -->
<g id="edge6" class="edge">
<title>app/dailyRecordService.ts&#45;&gt;domain/normalizers/normalizeDailyRecordAggregate.ts</title>
<path fill="none" stroke="#757575" d="M679.81,-649.63C717.57,-630.5 789.46,-590.96 840.25,-543.98 859.83,-525.87 854.18,-510.95 876.25,-495.98 900.53,-479.52 930.04,-468.47 958.27,-461.05"/>
<polygon fill="#757575" stroke="#757575" points="959.1,-464.45 967.97,-458.65 957.42,-457.65 959.1,-464.45"/>
</g>
<!-- ports/DailyRecordRepository.ts -->
<g id="node9" class="node">
<title>ports/DailyRecordRepository.ts</title>
<path fill="none" stroke="#c6c5fe" d="M1549.46,-713.86C1549.46,-713.86 1364.04,-713.86 1364.04,-713.86 1360.08,-713.86 1356.12,-709.9 1356.12,-705.94 1356.12,-705.94 1356.12,-698.02 1356.12,-698.02 1356.12,-694.07 1360.08,-690.11 1364.04,-690.11 1364.04,-690.11 1549.46,-690.11 1549.46,-690.11 1553.42,-690.11 1557.38,-694.07 1557.38,-698.02 1557.38,-698.02 1557.38,-705.94 1557.38,-705.94 1557.38,-709.9 1553.42,-713.86 1549.46,-713.86"/>
<text xml:space="preserve" text-anchor="middle" x="1456.75" y="-696.56" font-family="Arial" font-size="14.00" fill="#c6c5fe">ports/DailyRecordRepository.ts</text>
</g>
<!-- app/dailyRecordService.ts&#45;&gt;ports/DailyRecordRepository.ts -->
<g id="edge8" class="edge">
<title>app/dailyRecordService.ts&#45;&gt;ports/DailyRecordRepository.ts</title>
<path fill="none" stroke="#757575" d="M740.23,-667.76C781.37,-670.44 831.35,-673.56 876.25,-675.98 1039.02,-684.77 1227.62,-692.84 1344.32,-697.58"/>
<polygon fill="#757575" stroke="#757575" points="1344.09,-701.08 1354.23,-697.99 1344.38,-694.08 1344.09,-701.08"/>
</g>
<!-- data/dailyRecordRepository.localStorage.ts&#45;&gt;domain/type.ts -->
<g id="edge10" class="edge">
<title>data/dailyRecordRepository.localStorage.ts&#45;&gt;domain/type.ts</title>
<path fill="none" stroke="#757575" d="M1199.24,-753.29C1344.12,-762.58 1561.6,-767.85 1629.75,-722.98 1727.08,-658.9 1758.09,-507.68 1766.63,-449.43"/>
<polygon fill="#757575" stroke="#757575" points="1770.07,-450.06 1767.95,-439.68 1763.14,-449.11 1770.07,-450.06"/>
</g>
<!-- data/dailyRecordRepository.localStorage.ts&#45;&gt;ports/DailyRecordRepository.ts -->
<g id="edge11" class="edge">
<title>data/dailyRecordRepository.localStorage.ts&#45;&gt;ports/DailyRecordRepository.ts</title>
<path fill="none" stroke="#757575" d="M1184.31,-729.63C1235.43,-724.42 1294.53,-718.4 1344.51,-713.31"/>
<polygon fill="#757575" stroke="#757575" points="1344.59,-716.82 1354.18,-712.33 1343.88,-709.86 1344.59,-716.82"/>
</g>
<!-- domain/storage/dailyRecordStorage.ts -->
<g id="node10" class="node">
<title>domain/storage/dailyRecordStorage.ts</title>
<path fill="none" stroke="#c6c5fe" d="M1571.96,-793.86C1571.96,-793.86 1341.54,-793.86 1341.54,-793.86 1337.58,-793.86 1333.62,-789.9 1333.62,-785.94 1333.62,-785.94 1333.62,-778.02 1333.62,-778.02 1333.62,-774.07 1337.58,-770.11 1341.54,-770.11 1341.54,-770.11 1571.96,-770.11 1571.96,-770.11 1575.92,-770.11 1579.88,-774.07 1579.88,-778.02 1579.88,-778.02 1579.88,-785.94 1579.88,-785.94 1579.88,-789.9 1575.92,-793.86 1571.96,-793.86"/>
<text xml:space="preserve" text-anchor="middle" x="1456.75" y="-776.56" font-family="Arial" font-size="14.00" fill="#c6c5fe">domain/storage/dailyRecordStorage.ts</text>
</g>
<!-- data/dailyRecordRepository.localStorage.ts&#45;&gt;domain/storage/dailyRecordStorage.ts -->
<g id="edge9" class="edge">
<title>data/dailyRecordRepository.localStorage.ts&#45;&gt;domain/storage/dailyRecordStorage.ts</title>
<path fill="none" stroke="#757575" d="M1184.31,-754.34C1228.25,-758.81 1278.08,-763.89 1322.96,-768.46"/>
<polygon fill="#757575" stroke="#757575" points="1322.44,-771.92 1332.74,-769.45 1323.15,-764.96 1322.44,-771.92"/>
</g>
<!-- domain/factories/createEmptyDailyRecordAggregate.ts&#45;&gt;domain/type.ts -->
<g id="edge13" class="edge">
<title>domain/factories/createEmptyDailyRecordAggregate.ts&#45;&gt;domain/type.ts</title>
<path fill="none" stroke="#757575" d="M1601.88,-204.33C1611.67,-207.99 1621.08,-212.49 1629.75,-217.98 1700.95,-263.08 1744.42,-359.05 1761.36,-403.06"/>
<polygon fill="#757575" stroke="#757575" points="1758.05,-404.21 1764.82,-412.36 1764.61,-401.76 1758.05,-404.21"/>
</g>
<!-- domain/normalizers/normalizeDailyRecordAggregate.ts&#45;&gt;domain/type.ts -->
<g id="edge19" class="edge">
<title>domain/normalizers/normalizeDailyRecordAggregate.ts&#45;&gt;domain/type.ts</title>
<path fill="none" stroke="#757575" d="M1236.28,-441.08C1388.67,-436.76 1602.04,-430.72 1706.65,-427.76"/>
<polygon fill="#757575" stroke="#757575" points="1706.53,-431.27 1716.43,-427.48 1706.34,-424.27 1706.53,-431.27"/>
</g>
<!-- domain/normalizers/normalizeExerciseOrders.ts -->
<g id="node14" class="node">
<title>domain/normalizers/normalizeExerciseOrders.ts</title>
<path fill="none" stroke="#c6c5fe" d="M1601.96,-519.86C1601.96,-519.86 1311.54,-519.86 1311.54,-519.86 1307.58,-519.86 1303.62,-515.9 1303.62,-511.94 1303.62,-511.94 1303.62,-504.02 1303.62,-504.02 1303.62,-500.07 1307.58,-496.11 1311.54,-496.11 1311.54,-496.11 1601.96,-496.11 1601.96,-496.11 1605.92,-496.11 1609.88,-500.07 1609.88,-504.02 1609.88,-504.02 1609.88,-511.94 1609.88,-511.94 1609.88,-515.9 1605.92,-519.86 1601.96,-519.86"/>
<text xml:space="preserve" text-anchor="middle" x="1456.75" y="-502.56" font-family="Arial" font-size="14.00" fill="#c6c5fe">domain/normalizers/normalizeExerciseOrders.ts</text>
</g>
<!-- domain/normalizers/normalizeDailyRecordAggregate.ts&#45;&gt;domain/normalizers/normalizeExerciseOrders.ts -->
<g id="edge16" class="edge">
<title>domain/normalizers/normalizeDailyRecordAggregate.ts&#45;&gt;domain/normalizers/normalizeExerciseOrders.ts</title>
<path fill="none" stroke="#757575" d="M1123.73,-458.31C1167.98,-467.04 1229.43,-478.63 1283.75,-486.98 1300.21,-489.51 1317.6,-491.93 1334.74,-494.17"/>
<polygon fill="#757575" stroke="#757575" points="1334.1,-497.61 1344.46,-495.42 1334.99,-490.67 1334.1,-497.61"/>
</g>
<!-- domain/normalizers/normalizeMealOrders.ts -->
<g id="node15" class="node">
<title>domain/normalizers/normalizeMealOrders.ts</title>
<path fill="none" stroke="#c6c5fe" d="M1591.08,-397.86C1591.08,-397.86 1322.42,-397.86 1322.42,-397.86 1318.46,-397.86 1314.5,-393.9 1314.5,-389.94 1314.5,-389.94 1314.5,-382.02 1314.5,-382.02 1314.5,-378.07 1318.46,-374.11 1322.42,-374.11 1322.42,-374.11 1591.08,-374.11 1591.08,-374.11 1595.04,-374.11 1599,-378.07 1599,-382.02 1599,-382.02 1599,-389.94 1599,-389.94 1599,-393.9 1595.04,-397.86 1591.08,-397.86"/>
<text xml:space="preserve" text-anchor="middle" x="1456.75" y="-380.56" font-family="Arial" font-size="14.00" fill="#c6c5fe">domain/normalizers/normalizeMealOrders.ts</text>
</g>
<!-- domain/normalizers/normalizeDailyRecordAggregate.ts&#45;&gt;domain/normalizers/normalizeMealOrders.ts -->
<g id="edge17" class="edge">
<title>domain/normalizers/normalizeDailyRecordAggregate.ts&#45;&gt;domain/normalizers/normalizeMealOrders.ts</title>
<path fill="none" stroke="#757575" d="M1142.95,-433.61C1184.87,-427.14 1237.08,-419.1 1283.75,-411.98 1309.37,-408.07 1337.13,-403.86 1362.73,-399.99"/>
<polygon fill="#757575" stroke="#757575" points="1363.08,-403.48 1372.44,-398.53 1362.03,-396.56 1363.08,-403.48"/>
</g>
<!-- domain/normalizers/normalizeWeightOrders.ts -->
<g id="node16" class="node">
<title>domain/normalizers/normalizeWeightOrders.ts</title>
<path fill="none" stroke="#c6c5fe" d="M1597.08,-477.86C1597.08,-477.86 1316.42,-477.86 1316.42,-477.86 1312.46,-477.86 1308.5,-473.9 1308.5,-469.94 1308.5,-469.94 1308.5,-462.02 1308.5,-462.02 1308.5,-458.07 1312.46,-454.11 1316.42,-454.11 1316.42,-454.11 1597.08,-454.11 1597.08,-454.11 1601.04,-454.11 1605,-458.07 1605,-462.02 1605,-462.02 1605,-469.94 1605,-469.94 1605,-473.9 1601.04,-477.86 1597.08,-477.86"/>
<text xml:space="preserve" text-anchor="middle" x="1456.75" y="-460.56" font-family="Arial" font-size="14.00" fill="#c6c5fe">domain/normalizers/normalizeWeightOrders.ts</text>
</g>
<!-- domain/normalizers/normalizeDailyRecordAggregate.ts&#45;&gt;domain/normalizers/normalizeWeightOrders.ts -->
<g id="edge18" class="edge">
<title>domain/normalizers/normalizeDailyRecordAggregate.ts&#45;&gt;domain/normalizers/normalizeWeightOrders.ts</title>
<path fill="none" stroke="#757575" d="M1236.41,-454.81C1256.51,-455.84 1276.95,-456.88 1296.84,-457.89"/>
<polygon fill="#757575" stroke="#757575" points="1296.49,-461.38 1306.65,-458.39 1296.84,-454.39 1296.49,-461.38"/>
</g>
<!-- ports/DailyRecordRepository.ts&#45;&gt;domain/type.ts -->
<g id="edge38" class="edge">
<title>ports/DailyRecordRepository.ts&#45;&gt;domain/type.ts</title>
<path fill="none" stroke="#757575" d="M1557.65,-702.17C1582.9,-698.28 1608.77,-690.51 1629.75,-675.98 1711.14,-619.63 1750.46,-499.73 1763.92,-449.2"/>
<polygon fill="#757575" stroke="#757575" points="1767.27,-450.22 1766.35,-439.66 1760.49,-448.48 1767.27,-450.22"/>
</g>
<!-- domain/storage/dailyRecordStorage.ts&#45;&gt;domain/type.ts -->
<g id="edge34" class="edge">
<title>domain/storage/dailyRecordStorage.ts&#45;&gt;domain/type.ts</title>
<path fill="none" stroke="#757575" d="M1580.22,-779.25C1598.1,-774.55 1615.32,-767.19 1629.75,-755.98 1731.36,-677.1 1760,-510.38 1767.26,-449.16"/>
<polygon fill="#757575" stroke="#757575" points="1770.7,-449.9 1768.3,-439.58 1763.74,-449.14 1770.7,-449.9"/>
</g>
<!-- domain/factories/createEmptyDailyRecordAggregate.test.ts -->
<g id="node11" class="node">
<title>domain/factories/createEmptyDailyRecordAggregate.test.ts</title>
<path fill="none" stroke="#c6c5fe" d="M1239.83,-203.86C1239.83,-203.86 884.17,-203.86 884.17,-203.86 880.21,-203.86 876.25,-199.9 876.25,-195.94 876.25,-195.94 876.25,-188.02 876.25,-188.02 876.25,-184.07 880.21,-180.11 884.17,-180.11 884.17,-180.11 1239.83,-180.11 1239.83,-180.11 1243.79,-180.11 1247.75,-184.07 1247.75,-188.02 1247.75,-188.02 1247.75,-195.94 1247.75,-195.94 1247.75,-199.9 1243.79,-203.86 1239.83,-203.86"/>
<text xml:space="preserve" text-anchor="middle" x="1062" y="-186.56" font-family="Arial" font-size="14.00" fill="#c6c5fe">domain/factories/createEmptyDailyRecordAggregate.test.ts</text>
</g>
<!-- domain/factories/createEmptyDailyRecordAggregate.test.ts&#45;&gt;domain/factories/createEmptyDailyRecordAggregate.ts -->
<g id="edge12" class="edge">
<title>domain/factories/createEmptyDailyRecordAggregate.test.ts&#45;&gt;domain/factories/createEmptyDailyRecordAggregate.ts</title>
<path fill="none" stroke="#757575" d="M1248.16,-191.98C1256.13,-191.98 1264.13,-191.98 1272.1,-191.98"/>
<polygon fill="#757575" stroke="#757575" points="1271.83,-195.48 1281.83,-191.98 1271.83,-188.48 1271.83,-195.48"/>
</g>
<!-- domain/labels/wellnessLabels.ts -->
<g id="node12" class="node">
<title>domain/labels/wellnessLabels.ts</title>
<path fill="none" stroke="#cfffac" d="M1867.33,-85.86C1867.33,-85.86 1673.67,-85.86 1673.67,-85.86 1669.71,-85.86 1665.75,-81.9 1665.75,-77.94 1665.75,-77.94 1665.75,-70.02 1665.75,-70.02 1665.75,-66.07 1669.71,-62.11 1673.67,-62.11 1673.67,-62.11 1867.33,-62.11 1867.33,-62.11 1871.29,-62.11 1875.25,-66.07 1875.25,-70.02 1875.25,-70.02 1875.25,-77.94 1875.25,-77.94 1875.25,-81.9 1871.29,-85.86 1867.33,-85.86"/>
<text xml:space="preserve" text-anchor="middle" x="1770.5" y="-68.56" font-family="Arial" font-size="14.00" fill="#cfffac">domain/labels/wellnessLabels.ts</text>
</g>
<!-- domain/normalizers/normalizeDailyRecordAggregate.test.ts -->
<g id="node13" class="node">
<title>domain/normalizers/normalizeDailyRecordAggregate.test.ts</title>
<path fill="none" stroke="#c6c5fe" d="M832.33,-426.86C832.33,-426.86 474.42,-426.86 474.42,-426.86 470.46,-426.86 466.5,-422.9 466.5,-418.94 466.5,-418.94 466.5,-411.02 466.5,-411.02 466.5,-407.07 470.46,-403.11 474.42,-403.11 474.42,-403.11 832.33,-403.11 832.33,-403.11 836.29,-403.11 840.25,-407.07 840.25,-411.02 840.25,-411.02 840.25,-418.94 840.25,-418.94 840.25,-422.9 836.29,-426.86 832.33,-426.86"/>
<text xml:space="preserve" text-anchor="middle" x="653.38" y="-409.56" font-family="Arial" font-size="14.00" fill="#c6c5fe">domain/normalizers/normalizeDailyRecordAggregate.test.ts</text>
</g>
<!-- domain/normalizers/normalizeDailyRecordAggregate.test.ts&#45;&gt;domain/type.ts -->
<g id="edge15" class="edge">
<title>domain/normalizers/normalizeDailyRecordAggregate.test.ts&#45;&gt;domain/type.ts</title>
<path fill="none" stroke="#757575" d="M708.51,-402.65C857.41,-370.78 1284.92,-293 1629.75,-364.98 1669.5,-373.28 1711.79,-393.54 1739.31,-408.44"/>
<polygon fill="#757575" stroke="#757575" points="1737.32,-411.34 1747.77,-413.12 1740.71,-405.22 1737.32,-411.34"/>
</g>
<!-- domain/normalizers/normalizeDailyRecordAggregate.test.ts&#45;&gt;domain/normalizers/normalizeDailyRecordAggregate.ts -->
<g id="edge14" class="edge">
<title>domain/normalizers/normalizeDailyRecordAggregate.test.ts&#45;&gt;domain/normalizers/normalizeDailyRecordAggregate.ts</title>
<path fill="none" stroke="#757575" d="M816.54,-427.35C839.95,-429.13 864.12,-430.97 887.73,-432.77"/>
<polygon fill="#757575" stroke="#757575" points="887.16,-436.24 897.4,-433.51 887.69,-429.26 887.16,-436.24"/>
</g>
<!-- domain/normalizers/normalizeExerciseOrders.ts&#45;&gt;domain/type.ts -->
<g id="edge22" class="edge">
<title>domain/normalizers/normalizeExerciseOrders.ts&#45;&gt;domain/type.ts</title>
<path fill="none" stroke="#757575" d="M1590.91,-495.64C1604.13,-493.24 1617.27,-490.39 1629.75,-486.98 1668.02,-476.53 1709.37,-457.42 1737.09,-443.36"/>
<polygon fill="#757575" stroke="#757575" points="1738.37,-446.63 1745.66,-438.94 1735.17,-440.41 1738.37,-446.63"/>
</g>
<!-- domain/normalizers/normalizeMealOrders.ts&#45;&gt;domain/type.ts -->
<g id="edge23" class="edge">
<title>domain/normalizers/normalizeMealOrders.ts&#45;&gt;domain/type.ts</title>
<path fill="none" stroke="#757575" d="M1553.83,-398.31C1603.59,-404.69 1662.94,-412.31 1706.77,-417.93"/>
<polygon fill="#757575" stroke="#757575" points="1706.26,-421.4 1716.62,-419.2 1707.15,-414.45 1706.26,-421.4"/>
</g>
<!-- domain/normalizers/normalizeWeightOrders.ts&#45;&gt;domain/type.ts -->
<g id="edge26" class="edge">
<title>domain/normalizers/normalizeWeightOrders.ts&#45;&gt;domain/type.ts</title>
<path fill="none" stroke="#757575" d="M1553.83,-453.65C1603.59,-447.27 1662.94,-439.66 1706.77,-434.03"/>
<polygon fill="#757575" stroke="#757575" points="1707.15,-437.51 1716.62,-432.77 1706.26,-430.57 1707.15,-437.51"/>
</g>
<!-- domain/normalizers/normalizeExerciseOrders.test.ts -->
<g id="node17" class="node">
<title>domain/normalizers/normalizeExerciseOrders.test.ts</title>
<path fill="none" stroke="#c6c5fe" d="M1219.96,-587.86C1219.96,-587.86 904.04,-587.86 904.04,-587.86 900.08,-587.86 896.12,-583.9 896.12,-579.94 896.12,-579.94 896.12,-572.02 896.12,-572.02 896.12,-568.07 900.08,-564.11 904.04,-564.11 904.04,-564.11 1219.96,-564.11 1219.96,-564.11 1223.92,-564.11 1227.88,-568.07 1227.88,-572.02 1227.88,-572.02 1227.88,-579.94 1227.88,-579.94 1227.88,-583.9 1223.92,-587.86 1219.96,-587.86"/>
<text xml:space="preserve" text-anchor="middle" x="1062" y="-570.56" font-family="Arial" font-size="14.00" fill="#c6c5fe">domain/normalizers/normalizeExerciseOrders.test.ts</text>
</g>
<!-- domain/normalizers/normalizeExerciseOrders.test.ts&#45;&gt;domain/type.ts -->
<g id="edge21" class="edge">
<title>domain/normalizers/normalizeExerciseOrders.test.ts&#45;&gt;domain/type.ts</title>
<path fill="none" stroke="#757575" d="M1126.86,-588.32C1235.16,-606.2 1459.64,-629.97 1629.75,-558.98 1685.81,-535.59 1732.58,-478.58 1755.09,-447.34"/>
<polygon fill="#757575" stroke="#757575" points="1757.77,-449.61 1760.65,-439.41 1752.04,-445.58 1757.77,-449.61"/>
</g>
<!-- domain/normalizers/normalizeExerciseOrders.test.ts&#45;&gt;domain/normalizers/normalizeExerciseOrders.ts -->
<g id="edge20" class="edge">
<title>domain/normalizers/normalizeExerciseOrders.test.ts&#45;&gt;domain/normalizers/normalizeExerciseOrders.ts</title>
<path fill="none" stroke="#757575" d="M1134.12,-563.67C1201.48,-552.01 1302.57,-534.5 1373.4,-522.24"/>
<polygon fill="#757575" stroke="#757575" points="1373.74,-525.73 1383,-520.58 1372.55,-518.84 1373.74,-525.73"/>
</g>
<!-- domain/normalizers/normalizeWeightOrders.test.ts -->
<g id="node18" class="node">
<title>domain/normalizers/normalizeWeightOrders.test.ts</title>
<path fill="none" stroke="#c6c5fe" d="M1215.08,-528.86C1215.08,-528.86 908.92,-528.86 908.92,-528.86 904.96,-528.86 901,-524.9 901,-520.94 901,-520.94 901,-513.02 901,-513.02 901,-509.07 904.96,-505.11 908.92,-505.11 908.92,-505.11 1215.08,-505.11 1215.08,-505.11 1219.04,-505.11 1223,-509.07 1223,-513.02 1223,-513.02 1223,-520.94 1223,-520.94 1223,-524.9 1219.04,-528.86 1215.08,-528.86"/>
<text xml:space="preserve" text-anchor="middle" x="1062" y="-511.56" font-family="Arial" font-size="14.00" fill="#c6c5fe">domain/normalizers/normalizeWeightOrders.test.ts</text>
</g>
<!-- domain/normalizers/normalizeWeightOrders.test.ts&#45;&gt;domain/type.ts -->
<g id="edge25" class="edge">
<title>domain/normalizers/normalizeWeightOrders.test.ts&#45;&gt;domain/type.ts</title>
<path fill="none" stroke="#757575" d="M1115.1,-529.33C1217.02,-551.07 1448.6,-588.53 1629.75,-528.98 1679.18,-512.73 1725.5,-471.56 1750.42,-446.46"/>
<polygon fill="#757575" stroke="#757575" points="1752.81,-449.03 1757.26,-439.41 1747.79,-444.15 1752.81,-449.03"/>
</g>
<!-- domain/normalizers/normalizeWeightOrders.test.ts&#45;&gt;domain/normalizers/normalizeWeightOrders.ts -->
<g id="edge24" class="edge">
<title>domain/normalizers/normalizeWeightOrders.test.ts&#45;&gt;domain/normalizers/normalizeWeightOrders.ts</title>
<path fill="none" stroke="#757575" d="M1151.85,-504.63C1192.1,-499.1 1240.31,-492.59 1283.75,-486.98 1302.46,-484.57 1322.32,-482.08 1341.64,-479.69"/>
<polygon fill="#757575" stroke="#757575" points="1341.95,-483.18 1351.44,-478.49 1341.09,-476.23 1341.95,-483.18"/>
</g>
<!-- domain/report/DailyRecordReportView.tsx&#45;&gt;domain/type.ts -->
<g id="edge28" class="edge">
<title>domain/report/DailyRecordReportView.tsx&#45;&gt;domain/type.ts</title>
<path fill="none" stroke="#757575" d="M1195.97,-106.23C1352.15,-105.28 1594.54,-107.69 1629.75,-130.98 1726.4,-194.93 1757.82,-344.95 1766.54,-402.73"/>
<polygon fill="#757575" stroke="#757575" points="1763.04,-402.97 1767.9,-412.39 1769.97,-402 1763.04,-402.97"/>
</g>
<!-- domain/report/dailyRecordReport.ts -->
<g id="node20" class="node">
<title>domain/report/dailyRecordReport.ts</title>
<path fill="none" stroke="#c6c5fe" d="M1563.71,-85.86C1563.71,-85.86 1349.79,-85.86 1349.79,-85.86 1345.83,-85.86 1341.88,-81.9 1341.88,-77.94 1341.88,-77.94 1341.88,-70.02 1341.88,-70.02 1341.88,-66.07 1345.83,-62.11 1349.79,-62.11 1349.79,-62.11 1563.71,-62.11 1563.71,-62.11 1567.67,-62.11 1571.62,-66.07 1571.62,-70.02 1571.62,-70.02 1571.62,-77.94 1571.62,-77.94 1571.62,-81.9 1567.67,-85.86 1563.71,-85.86"/>
<text xml:space="preserve" text-anchor="middle" x="1456.75" y="-68.56" font-family="Arial" font-size="14.00" fill="#c6c5fe">domain/report/dailyRecordReport.ts</text>
</g>
<!-- domain/report/DailyRecordReportView.tsx&#45;&gt;domain/report/dailyRecordReport.ts -->
<g id="edge27" class="edge">
<title>domain/report/DailyRecordReportView.tsx&#45;&gt;domain/report/dailyRecordReport.ts</title>
<path fill="none" stroke="#757575" d="M1195.97,-96.47C1239.38,-92.71 1287.42,-88.55 1330.26,-84.85"/>
<polygon fill="#757575" stroke="#757575" points="1330.45,-88.34 1340.11,-83.99 1329.84,-81.37 1330.45,-88.34"/>
</g>
<!-- domain/report/dailyRecordReport.ts&#45;&gt;domain/type.ts -->
<g id="edge33" class="edge">
<title>domain/report/dailyRecordReport.ts&#45;&gt;domain/type.ts</title>
<path fill="none" stroke="#757575" d="M1571.71,-74.74C1592.58,-79.25 1613.02,-87.06 1629.75,-99.98 1730.05,-177.49 1759.41,-341.15 1767.06,-402.28"/>
<polygon fill="#757575" stroke="#757575" points="1763.58,-402.67 1768.21,-412.2 1770.54,-401.86 1763.58,-402.67"/>
</g>
<!-- domain/report/dailyRecordReport.ts&#45;&gt;domain/labels/wellnessLabels.ts -->
<g id="edge32" class="edge">
<title>domain/report/dailyRecordReport.ts&#45;&gt;domain/labels/wellnessLabels.ts</title>
<path fill="none" stroke="#757575" d="M1572.06,-73.98C1598.75,-73.98 1627.19,-73.98 1653.93,-73.98"/>
<polygon fill="#757575" stroke="#757575" points="1653.76,-77.48 1663.76,-73.98 1653.76,-70.48 1653.76,-77.48"/>
</g>
<!-- domain/report/dailyRecordReport.test.ts -->
<g id="node21" class="node">
<title>domain/report/dailyRecordReport.test.ts</title>
<path fill="none" stroke="#c6c5fe" d="M1181.71,-161.86C1181.71,-161.86 942.29,-161.86 942.29,-161.86 938.33,-161.86 934.38,-157.9 934.38,-153.94 934.38,-153.94 934.38,-146.02 934.38,-146.02 934.38,-142.07 938.33,-138.11 942.29,-138.11 942.29,-138.11 1181.71,-138.11 1181.71,-138.11 1185.67,-138.11 1189.62,-142.07 1189.62,-146.02 1189.62,-146.02 1189.62,-153.94 1189.62,-153.94 1189.62,-157.9 1185.67,-161.86 1181.71,-161.86"/>
<text xml:space="preserve" text-anchor="middle" x="1062" y="-144.56" font-family="Arial" font-size="14.00" fill="#c6c5fe">domain/report/dailyRecordReport.test.ts</text>
</g>
<!-- domain/report/dailyRecordReport.test.ts&#45;&gt;domain/type.ts -->
<g id="edge31" class="edge">
<title>domain/report/dailyRecordReport.test.ts&#45;&gt;domain/type.ts</title>
<path fill="none" stroke="#757575" d="M1190.03,-140.48C1334.31,-132.12 1558.91,-127.23 1629.75,-170.98 1715.84,-224.15 1752.79,-350.38 1764.77,-402.67"/>
<polygon fill="#757575" stroke="#757575" points="1761.32,-403.24 1766.86,-412.27 1768.16,-401.75 1761.32,-403.24"/>
</g>
<!-- domain/report/dailyRecordReport.test.ts&#45;&gt;domain/factories/createEmptyDailyRecordAggregate.ts -->
<g id="edge29" class="edge">
<title>domain/report/dailyRecordReport.test.ts&#45;&gt;domain/factories/createEmptyDailyRecordAggregate.ts</title>
<path fill="none" stroke="#757575" d="M1178.71,-162.36C1225.95,-167.41 1280.71,-173.26 1329.02,-178.43"/>
<polygon fill="#757575" stroke="#757575" points="1328.36,-181.88 1338.68,-179.46 1329.11,-174.92 1328.36,-181.88"/>
</g>
<!-- domain/report/dailyRecordReport.test.ts&#45;&gt;domain/report/dailyRecordReport.ts -->
<g id="edge30" class="edge">
<title>domain/report/dailyRecordReport.test.ts&#45;&gt;domain/report/dailyRecordReport.ts</title>
<path fill="none" stroke="#757575" d="M1190.08,-138C1209.47,-135.46 1229.19,-132.47 1247.75,-128.98 1302.22,-118.74 1363.44,-101.89 1405.27,-89.54"/>
<polygon fill="#757575" stroke="#757575" points="1406.23,-92.9 1414.82,-86.69 1404.23,-86.19 1406.23,-92.9"/>
</g>
<!-- index.css -->
<g id="node22" class="node">
<title>index.css</title>
<path fill="none" stroke="#cfffac" d="M188.33,-523.86C188.33,-523.86 131.92,-523.86 131.92,-523.86 127.96,-523.86 124,-519.9 124,-515.94 124,-515.94 124,-508.02 124,-508.02 124,-504.07 127.96,-500.11 131.92,-500.11 131.92,-500.11 188.33,-500.11 188.33,-500.11 192.29,-500.11 196.25,-504.07 196.25,-508.02 196.25,-508.02 196.25,-515.94 196.25,-515.94 196.25,-519.9 192.29,-523.86 188.33,-523.86"/>
<text xml:space="preserve" text-anchor="middle" x="160.12" y="-506.56" font-family="Arial" font-size="14.00" fill="#cfffac">index.css</text>
</g>
<!-- main.tsx -->
<g id="node23" class="node">
<title>main.tsx</title>
<path fill="none" stroke="#c6c5fe" d="M69.58,-565.86C69.58,-565.86 18.42,-565.86 18.42,-565.86 14.46,-565.86 10.5,-561.9 10.5,-557.94 10.5,-557.94 10.5,-550.02 10.5,-550.02 10.5,-546.07 14.46,-542.11 18.42,-542.11 18.42,-542.11 69.58,-542.11 69.58,-542.11 73.54,-542.11 77.5,-546.07 77.5,-550.02 77.5,-550.02 77.5,-557.94 77.5,-557.94 77.5,-561.9 73.54,-565.86 69.58,-565.86"/>
<text xml:space="preserve" text-anchor="middle" x="44" y="-548.56" font-family="Arial" font-size="14.00" fill="#c6c5fe">main.tsx</text>
</g>
<!-- main.tsx&#45;&gt;App.tsx -->
<g id="edge35" class="edge">
<title>main.tsx&#45;&gt;App.tsx</title>
<path fill="none" stroke="#757575" d="M77.7,-553.98C90.24,-553.98 104.7,-553.98 117.92,-553.98"/>
<polygon fill="#757575" stroke="#757575" points="117.64,-557.48 127.64,-553.98 117.64,-550.48 117.64,-557.48"/>
</g>
<!-- main.tsx&#45;&gt;domain/storage/dailyRecordStorage.ts -->
<g id="edge36" class="edge">
<title>main.tsx&#45;&gt;domain/storage/dailyRecordStorage.ts</title>
<path fill="none" stroke="#757575" d="M74.78,-566.28C79.43,-568.82 84.01,-571.73 88,-574.98 216.87,-680.06 164.1,-859.98 330.38,-859.98 330.38,-859.98 330.38,-859.98 654.38,-859.98 915.27,-859.98 1221.7,-818.52 1368.6,-796.06"/>
<polygon fill="#757575" stroke="#757575" points="1368.9,-799.55 1378.25,-794.57 1367.84,-792.63 1368.9,-799.55"/>
</g>
<!-- main.tsx&#45;&gt;index.css -->
<g id="edge37" class="edge">
<title>main.tsx&#45;&gt;index.css</title>
<path fill="none" stroke="#757575" d="M77.7,-541.95C89.32,-537.67 102.59,-532.79 115,-528.22"/>
<polygon fill="#757575" stroke="#757575" points="116.03,-531.57 124.2,-524.83 113.61,-525 116.03,-531.57"/>
</g>
<!-- ui/exercise/ExerciseSessionsEditor.tsx&#45;&gt;domain/type.ts -->
<g id="edge46" class="edge">
<title>ui/exercise/ExerciseSessionsEditor.tsx&#45;&gt;domain/type.ts</title>
<path fill="none" stroke="#757575" d="M776.83,-260.5C1003.48,-248.4 1479.06,-231.73 1629.75,-293.98 1685.69,-317.09 1732.51,-373.71 1755.06,-404.76"/>
<polygon fill="#757575" stroke="#757575" points="1752,-406.49 1760.63,-412.63 1757.71,-402.45 1752,-406.49"/>
</g>
<!-- ui/meal/MealEditor.tsx&#45;&gt;domain/type.ts -->
<g id="edge47" class="edge">
<title>ui/meal/MealEditor.tsx&#45;&gt;domain/type.ts</title>
<path fill="none" stroke="#757575" d="M728.31,-223.95C941.95,-218.58 1550.07,-207.03 1629.75,-246.98 1696.94,-280.67 1741.55,-363.44 1759.96,-403.52"/>
<polygon fill="#757575" stroke="#757575" points="1756.67,-404.73 1763.93,-412.45 1763.07,-401.89 1756.67,-404.73"/>
</g>
<!-- ui/weights/WeightEditor.tsx&#45;&gt;domain/type.ts -->
<g id="edge48" class="edge">
<title>ui/weights/WeightEditor.tsx&#45;&gt;domain/type.ts</title>
<path fill="none" stroke="#757575" d="M735.44,-49.66C942.84,-19.91 1486.49,46.33 1629.75,-52.98 1690.58,-95.15 1747.4,-327.64 1764.38,-402.65"/>
<polygon fill="#757575" stroke="#757575" points="1760.91,-403.18 1766.51,-412.17 1767.74,-401.65 1760.91,-403.18"/>
</g>
<!-- ui/wellness/WellnessEditor.tsx&#45;&gt;domain/type.ts -->
<g id="edge49" class="edge">
<title>ui/wellness/WellnessEditor.tsx&#45;&gt;domain/type.ts</title>
<path fill="none" stroke="#757575" d="M681.67,-535.28C722.83,-553.09 803.7,-585.2 876.25,-596.98 1041.53,-623.82 1478.46,-668.73 1629.75,-596.98 1695.33,-565.88 1740.34,-487.27 1759.34,-448.42"/>
<polygon fill="#757575" stroke="#757575" points="1762.44,-450.06 1763.55,-439.53 1756.11,-447.07 1762.44,-450.06"/>
</g>
<!-- vite&#45;env.d.ts -->
<g id="node28" class="node">
<title>vite&#45;env.d.ts</title>
<path fill="none" stroke="#cfffac" d="M80.08,-607.86C80.08,-607.86 7.92,-607.86 7.92,-607.86 3.96,-607.86 0,-603.9 0,-599.94 0,-599.94 0,-592.02 0,-592.02 0,-588.07 3.96,-584.11 7.92,-584.11 7.92,-584.11 80.08,-584.11 80.08,-584.11 84.04,-584.11 88,-588.07 88,-592.02 88,-592.02 88,-599.94 88,-599.94 88,-603.9 84.04,-607.86 80.08,-607.86"/>
<text xml:space="preserve" text-anchor="middle" x="44" y="-590.56" font-family="Arial" font-size="14.00" fill="#cfffac">vite&#45;env.d.ts</text>
</g>
</g>
</svg>
