<?xml version="1.0" encoding="UTF-8" standalone="no"?>
<!DOCTYPE svg PUBLIC "-//W3C//DTD SVG 1.1//EN"
 "http://www.w3.org/Graphics/SVG/1.1/DTD/svg11.dtd">
<!-- Generated by graphviz version 14.1.2 (20260124.0452)
 -->
<!-- Title: G Pages: 1 -->
<svg width="1660pt" height="717pt"
 viewBox="0.00 0.00 1660.00 717.00" xmlns="http://www.w3.org/2000/svg" xmlns:xlink="http://www.w3.org/1999/xlink">
<g id="graph0" class="graph" transform="scale(1 1) rotate(0) translate(21.6 695.29)">
<title>G</title>
<polygon fill="#111111" stroke="none" points="-21.6,21.6 -21.6,-695.29 1638.85,-695.29 1638.85,21.6 -21.6,21.6"/>
<!-- App.tsx -->
<g id="node1" class="node">
<title>App.tsx</title>
<path fill="none" stroke="#c6c5fe" d="M182.71,-292.03C182.71,-292.03 137.54,-292.03 137.54,-292.03 133.58,-292.03 129.62,-288.07 129.62,-284.11 129.62,-284.11 129.62,-276.19 129.62,-276.19 129.62,-272.23 133.58,-268.28 137.54,-268.28 137.54,-268.28 182.71,-268.28 182.71,-268.28 186.67,-268.28 190.62,-272.23 190.62,-276.19 190.62,-276.19 190.62,-284.11 190.62,-284.11 190.62,-288.07 186.67,-292.03 182.71,-292.03"/>
<text xml:space="preserve" text-anchor="middle" x="160.12" y="-274.73" font-family="Arial" font-size="14.00" fill="#c6c5fe">App.tsx</text>
</g>
<!-- components/DailyRecordForm.tsx -->
<g id="node2" class="node">
<title>components/DailyRecordForm.tsx</title>
<path fill="none" stroke="#c6c5fe" d="M681.58,-592.03C681.58,-592.03 476.67,-592.03 476.67,-592.03 472.71,-592.03 468.75,-588.07 468.75,-584.11 468.75,-584.11 468.75,-576.19 468.75,-576.19 468.75,-572.23 472.71,-568.28 476.67,-568.28 476.67,-568.28 681.58,-568.28 681.58,-568.28 685.54,-568.28 689.5,-572.23 689.5,-576.19 689.5,-576.19 689.5,-584.11 689.5,-584.11 689.5,-588.07 685.54,-592.03 681.58,-592.03"/>
<text xml:space="preserve" text-anchor="middle" x="579.12" y="-574.73" font-family="Arial" font-size="14.00" fill="#c6c5fe">components/DailyRecordForm.tsx</text>
</g>
<!-- App.tsx&#45;&gt;components/DailyRecordForm.tsx -->
<g id="edge1" class="edge">
<title>App.tsx&#45;&gt;components/DailyRecordForm.tsx</title>
<path fill="none" stroke="#757575" d="M178.25,-292.47C243.06,-339.1 473.63,-504.97 551.91,-561.29"/>
<polygon fill="#757575" stroke="#757575" points="549.7,-564.01 559.86,-567.01 553.79,-558.33 549.7,-564.01"/>
</g>
<!-- ui/DailyRecordFormV110.tsx -->
<g id="node3" class="node">
<title>ui/DailyRecordFormV110.tsx</title>
<path fill="none" stroke="#c6c5fe" d="M412.08,-178.03C412.08,-178.03 240.17,-178.03 240.17,-178.03 236.21,-178.03 232.25,-174.07 232.25,-170.11 232.25,-170.11 232.25,-162.19 232.25,-162.19 232.25,-158.23 236.21,-154.28 240.17,-154.28 240.17,-154.28 412.08,-154.28 412.08,-154.28 416.04,-154.28 420,-158.23 420,-162.19 420,-162.19 420,-170.11 420,-170.11 420,-174.07 416.04,-178.03 412.08,-178.03"/>
<text xml:space="preserve" text-anchor="middle" x="326.12" y="-160.73" font-family="Arial" font-size="14.00" fill="#c6c5fe">ui/DailyRecordFormV110.tsx</text>
</g>
<!-- App.tsx&#45;&gt;ui/DailyRecordFormV110.tsx -->
<g id="edge2" class="edge">
<title>App.tsx&#45;&gt;ui/DailyRecordFormV110.tsx</title>
<path fill="none" stroke="#757575" d="M182.48,-267.78C187.07,-265.01 191.86,-262.04 196.25,-259.15 233.24,-234.81 274.51,-204.43 300.14,-185.16"/>
<polygon fill="#757575" stroke="#757575" points="302.08,-188.08 307.96,-179.26 297.87,-182.49 302.08,-188.08"/>
</g>
<!-- data/localStorageHistory.ts -->
<g id="node10" class="node">
<title>data/localStorageHistory.ts</title>
<path fill="none" stroke="#c6c5fe" d="M992.71,-670.03C992.71,-670.03 832.04,-670.03 832.04,-670.03 828.08,-670.03 824.12,-666.07 824.12,-662.11 824.12,-662.11 824.12,-654.19 824.12,-654.19 824.12,-650.23 828.08,-646.28 832.04,-646.28 832.04,-646.28 992.71,-646.28 992.71,-646.28 996.67,-646.28 1000.62,-650.23 1000.62,-654.19 1000.62,-654.19 1000.62,-662.11 1000.62,-662.11 1000.62,-666.07 996.67,-670.03 992.71,-670.03"/>
<text xml:space="preserve" text-anchor="middle" x="912.38" y="-652.73" font-family="Arial" font-size="14.00" fill="#c6c5fe">data/localStorageHistory.ts</text>
</g>
<!-- components/DailyRecordForm.tsx&#45;&gt;data/localStorageHistory.ts -->
<g id="edge8" class="edge">
<title>components/DailyRecordForm.tsx&#45;&gt;data/localStorageHistory.ts</title>
<path fill="none" stroke="#757575" d="M612.07,-592.42C643.69,-604.15 693.69,-621.56 738.25,-632.15 762.1,-637.82 788.1,-642.5 812.54,-646.24"/>
<polygon fill="#757575" stroke="#757575" points="811.74,-649.66 822.14,-647.68 812.77,-642.74 811.74,-649.66"/>
</g>
<!-- domain/DailyRecord.ts -->
<g id="node11" class="node">
<title>domain/DailyRecord.ts</title>
<path fill="none" stroke="#cfffac" d="M1609.33,-592.03C1609.33,-592.03 1472.67,-592.03 1472.67,-592.03 1468.71,-592.03 1464.75,-588.07 1464.75,-584.11 1464.75,-584.11 1464.75,-576.19 1464.75,-576.19 1464.75,-572.23 1468.71,-568.28 1472.67,-568.28 1472.67,-568.28 1609.33,-568.28 1609.33,-568.28 1613.29,-568.28 1617.25,-572.23 1617.25,-576.19 1617.25,-576.19 1617.25,-584.11 1617.25,-584.11 1617.25,-588.07 1613.29,-592.03 1609.33,-592.03"/>
<text xml:space="preserve" text-anchor="middle" x="1541" y="-574.73" font-family="Arial" font-size="14.00" fill="#cfffac">domain/DailyRecord.ts</text>
</g>
<!-- components/DailyRecordForm.tsx&#45;&gt;domain/DailyRecord.ts -->
<g id="edge9" class="edge">
<title>components/DailyRecordForm.tsx&#45;&gt;domain/DailyRecord.ts</title>
<path fill="none" stroke="#757575" d="M689.77,-580.15C882.33,-580.15 1277.45,-580.15 1452.83,-580.15"/>
<polygon fill="#757575" stroke="#757575" points="1452.79,-583.65 1462.79,-580.15 1452.79,-576.65 1452.79,-583.65"/>
</g>
<!-- domain/formatDailyRecord.ts -->
<g id="node12" class="node">
<title>domain/formatDailyRecord.ts</title>
<path fill="none" stroke="#c6c5fe" d="M1000.21,-552.03C1000.21,-552.03 824.54,-552.03 824.54,-552.03 820.58,-552.03 816.62,-548.07 816.62,-544.11 816.62,-544.11 816.62,-536.19 816.62,-536.19 816.62,-532.23 820.58,-528.28 824.54,-528.28 824.54,-528.28 1000.21,-528.28 1000.21,-528.28 1004.17,-528.28 1008.12,-532.23 1008.12,-536.19 1008.12,-536.19 1008.12,-544.11 1008.12,-544.11 1008.12,-548.07 1004.17,-552.03 1000.21,-552.03"/>
<text xml:space="preserve" text-anchor="middle" x="912.38" y="-534.73" font-family="Arial" font-size="14.00" fill="#c6c5fe">domain/formatDailyRecord.ts</text>
</g>
<!-- components/DailyRecordForm.tsx&#45;&gt;domain/formatDailyRecord.ts -->
<g id="edge10" class="edge">
<title>components/DailyRecordForm.tsx&#45;&gt;domain/formatDailyRecord.ts</title>
<path fill="none" stroke="#757575" d="M682.21,-567.82C721.23,-563.11 765.78,-557.73 805.17,-552.97"/>
<polygon fill="#757575" stroke="#757575" points="805.39,-556.47 814.9,-551.8 804.55,-549.52 805.39,-556.47"/>
</g>
<!-- domain/history.ts -->
<g id="node13" class="node">
<title>domain/history.ts</title>
<path fill="none" stroke="#c6c5fe" d="M1326.71,-632.03C1326.71,-632.03 1224.54,-632.03 1224.54,-632.03 1220.58,-632.03 1216.62,-628.07 1216.62,-624.11 1216.62,-624.11 1216.62,-616.19 1216.62,-616.19 1216.62,-612.23 1220.58,-608.28 1224.54,-608.28 1224.54,-608.28 1326.71,-608.28 1326.71,-608.28 1330.67,-608.28 1334.62,-612.23 1334.62,-616.19 1334.62,-616.19 1334.62,-624.11 1334.62,-624.11 1334.62,-628.07 1330.67,-632.03 1326.71,-632.03"/>
<text xml:space="preserve" text-anchor="middle" x="1275.62" y="-614.73" font-family="Arial" font-size="14.00" fill="#c6c5fe">domain/history.ts</text>
</g>
<!-- components/DailyRecordForm.tsx&#45;&gt;domain/history.ts -->
<g id="edge11" class="edge">
<title>components/DailyRecordForm.tsx&#45;&gt;domain/history.ts</title>
<path fill="none" stroke="#757575" d="M689.81,-590.43C706.05,-591.79 722.58,-593.08 738.25,-594.15 905.5,-605.6 1102.44,-613.79 1204.83,-617.66"/>
<polygon fill="#757575" stroke="#757575" points="1204.61,-621.15 1214.73,-618.03 1204.87,-614.15 1204.61,-621.15"/>
</g>
<!-- app/dailyRecordService.ts -->
<g id="node4" class="node">
<title>app/dailyRecordService.ts</title>
<path fill="none" stroke="#c6c5fe" d="M657.58,-342.03C657.58,-342.03 500.67,-342.03 500.67,-342.03 496.71,-342.03 492.75,-338.07 492.75,-334.11 492.75,-334.11 492.75,-326.19 492.75,-326.19 492.75,-322.23 496.71,-318.28 500.67,-318.28 500.67,-318.28 657.58,-318.28 657.58,-318.28 661.54,-318.28 665.5,-322.23 665.5,-326.19 665.5,-326.19 665.5,-334.11 665.5,-334.11 665.5,-338.07 661.54,-342.03 657.58,-342.03"/>
<text xml:space="preserve" text-anchor="middle" x="579.12" y="-324.73" font-family="Arial" font-size="14.00" fill="#c6c5fe">app/dailyRecordService.ts</text>
</g>
<!-- ui/DailyRecordFormV110.tsx&#45;&gt;app/dailyRecordService.ts -->
<g id="edge30" class="edge">
<title>ui/DailyRecordFormV110.tsx&#45;&gt;app/dailyRecordService.ts</title>
<path fill="none" stroke="#757575" d="M345.99,-178.48C389.71,-207.04 498.14,-277.89 549.84,-311.67"/>
<polygon fill="#757575" stroke="#757575" points="547.83,-314.54 558.12,-317.08 551.66,-308.68 547.83,-314.54"/>
</g>
<!-- domain/type.ts -->
<g id="node8" class="node">
<title>domain/type.ts</title>
<path fill="none" stroke="#cfffac" d="M1585.33,-295.03C1585.33,-295.03 1496.67,-295.03 1496.67,-295.03 1492.71,-295.03 1488.75,-291.07 1488.75,-287.11 1488.75,-287.11 1488.75,-279.19 1488.75,-279.19 1488.75,-275.23 1492.71,-271.28 1496.67,-271.28 1496.67,-271.28 1585.33,-271.28 1585.33,-271.28 1589.29,-271.28 1593.25,-275.23 1593.25,-279.19 1593.25,-279.19 1593.25,-287.11 1593.25,-287.11 1593.25,-291.07 1589.29,-295.03 1585.33,-295.03"/>
<text xml:space="preserve" text-anchor="middle" x="1541" y="-277.73" font-family="Arial" font-size="14.00" fill="#cfffac">domain/type.ts</text>
</g>
<!-- ui/DailyRecordFormV110.tsx&#45;&gt;domain/type.ts -->
<g id="edge31" class="edge">
<title>ui/DailyRecordFormV110.tsx&#45;&gt;domain/type.ts</title>
<path fill="none" stroke="#757575" d="M420.12,-167.14C668.34,-170.18 1334.06,-181.07 1428.75,-211.15 1462.94,-222.01 1496.75,-246.35 1517.96,-263.72"/>
<polygon fill="#757575" stroke="#757575" points="1515.45,-266.18 1525.35,-269.94 1519.95,-260.82 1515.45,-266.18"/>
</g>
<!-- ui/exercise/ExerciseSessionsEditor.tsx -->
<g id="node19" class="node">
<title>ui/exercise/ExerciseSessionsEditor.tsx</title>
<path fill="none" stroke="#c6c5fe" d="M694.33,-158.03C694.33,-158.03 463.92,-158.03 463.92,-158.03 459.96,-158.03 456,-154.07 456,-150.11 456,-150.11 456,-142.19 456,-142.19 456,-138.23 459.96,-134.28 463.92,-134.28 463.92,-134.28 694.33,-134.28 694.33,-134.28 698.29,-134.28 702.25,-138.23 702.25,-142.19 702.25,-142.19 702.25,-150.11 702.25,-150.11 702.25,-154.07 698.29,-158.03 694.33,-158.03"/>
<text xml:space="preserve" text-anchor="middle" x="579.12" y="-140.73" font-family="Arial" font-size="14.00" fill="#c6c5fe">ui/exercise/ExerciseSessionsEditor.tsx</text>
</g>
<!-- ui/DailyRecordFormV110.tsx&#45;&gt;ui/exercise/ExerciseSessionsEditor.tsx -->
<g id="edge32" class="edge">
<title>ui/DailyRecordFormV110.tsx&#45;&gt;ui/exercise/ExerciseSessionsEditor.tsx</title>
<path fill="none" stroke="#757575" d="M420.23,-158.73C428.1,-158.1 436.16,-157.46 444.26,-156.82"/>
<polygon fill="#757575" stroke="#757575" points="444.52,-160.31 454.21,-156.02 443.97,-153.33 444.52,-160.31"/>
</g>
<!-- ui/weights/WeightEditor.tsx -->
<g id="node20" class="node">
<title>ui/weights/WeightEditor.tsx</title>
<path fill="none" stroke="#c6c5fe" d="M659.83,-116.03C659.83,-116.03 498.42,-116.03 498.42,-116.03 494.46,-116.03 490.5,-112.07 490.5,-108.11 490.5,-108.11 490.5,-100.19 490.5,-100.19 490.5,-96.23 494.46,-92.28 498.42,-92.28 498.42,-92.28 659.83,-92.28 659.83,-92.28 663.79,-92.28 667.75,-96.23 667.75,-100.19 667.75,-100.19 667.75,-108.11 667.75,-108.11 667.75,-112.07 663.79,-116.03 659.83,-116.03"/>
<text xml:space="preserve" text-anchor="middle" x="579.12" y="-98.73" font-family="Arial" font-size="14.00" fill="#c6c5fe">ui/weights/WeightEditor.tsx</text>
</g>
<!-- ui/DailyRecordFormV110.tsx&#45;&gt;ui/weights/WeightEditor.tsx -->
<g id="edge33" class="edge">
<title>ui/DailyRecordFormV110.tsx&#45;&gt;ui/weights/WeightEditor.tsx</title>
<path fill="none" stroke="#757575" d="M361.49,-153.79C387.25,-144.88 423.49,-133.08 456,-125.15 465.67,-122.79 475.83,-120.6 486,-118.59"/>
<polygon fill="#757575" stroke="#757575" points="486.35,-122.09 495.51,-116.77 485.03,-115.21 486.35,-122.09"/>
</g>
<!-- ui/wellness/WellnessEditor.tsx -->
<g id="node21" class="node">
<title>ui/wellness/WellnessEditor.tsx</title>
<path fill="none" stroke="#c6c5fe" d="M669.21,-74.03C669.21,-74.03 489.04,-74.03 489.04,-74.03 485.08,-74.03 481.12,-70.07 481.12,-66.11 481.12,-66.11 481.12,-58.19 481.12,-58.19 481.12,-54.23 485.08,-50.28 489.04,-50.28 489.04,-50.28 669.21,-50.28 669.21,-50.28 673.17,-50.28 677.12,-54.23 677.12,-58.19 677.12,-58.19 677.12,-66.11 677.12,-66.11 677.12,-70.07 673.17,-74.03 669.21,-74.03"/>
<text xml:space="preserve" text-anchor="middle" x="579.12" y="-56.73" font-family="Arial" font-size="14.00" fill="#c6c5fe">ui/wellness/WellnessEditor.tsx</text>
</g>
<!-- ui/DailyRecordFormV110.tsx&#45;&gt;ui/wellness/WellnessEditor.tsx -->
<g id="edge34" class="edge">
<title>ui/DailyRecordFormV110.tsx&#45;&gt;ui/wellness/WellnessEditor.tsx</title>
<path fill="none" stroke="#757575" d="M341.52,-154.06C364.26,-135.64 410.62,-100.82 456,-83.15 461.31,-81.08 466.84,-79.22 472.47,-77.53"/>
<polygon fill="#757575" stroke="#757575" points="473.24,-80.95 481.95,-74.92 471.38,-74.2 473.24,-80.95"/>
</g>
<!-- data/dailyRecordRepository.localStorage.ts -->
<g id="node5" class="node">
<title>data/dailyRecordRepository.localStorage.ts</title>
<path fill="none" stroke="#c6c5fe" d="M1041.46,-472.03C1041.46,-472.03 783.29,-472.03 783.29,-472.03 779.33,-472.03 775.38,-468.07 775.38,-464.11 775.38,-464.11 775.38,-456.19 775.38,-456.19 775.38,-452.23 779.33,-448.28 783.29,-448.28 783.29,-448.28 1041.46,-448.28 1041.46,-448.28 1045.42,-448.28 1049.38,-452.23 1049.38,-456.19 1049.38,-456.19 1049.38,-464.11 1049.38,-464.11 1049.38,-468.07 1045.42,-472.03 1041.46,-472.03"/>
<text xml:space="preserve" text-anchor="middle" x="912.38" y="-454.73" font-family="Arial" font-size="14.00" fill="#c6c5fe">data/dailyRecordRepository.localStorage.ts</text>
</g>
<!-- app/dailyRecordService.ts&#45;&gt;data/dailyRecordRepository.localStorage.ts -->
<g id="edge3" class="edge">
<title>app/dailyRecordService.ts&#45;&gt;data/dailyRecordRepository.localStorage.ts</title>
<path fill="none" stroke="#757575" d="M596.23,-342.41C623.78,-362.78 682.42,-403.48 738.25,-425.15 760.71,-433.87 785.68,-440.53 809.52,-445.58"/>
<polygon fill="#757575" stroke="#757575" points="808.77,-449 819.26,-447.56 810.16,-442.14 808.77,-449"/>
</g>
<!-- domain/factories/createEmptyDailyRecordAggregate.ts -->
<g id="node6" class="node">
<title>domain/factories/createEmptyDailyRecordAggregate.ts</title>
<path fill="none" stroke="#c6c5fe" d="M1077.46,-365.03C1077.46,-365.03 747.29,-365.03 747.29,-365.03 743.33,-365.03 739.38,-361.07 739.38,-357.11 739.38,-357.11 739.38,-349.19 739.38,-349.19 739.38,-345.23 743.33,-341.28 747.29,-341.28 747.29,-341.28 1077.46,-341.28 1077.46,-341.28 1081.42,-341.28 1085.38,-345.23 1085.38,-349.19 1085.38,-349.19 1085.38,-357.11 1085.38,-357.11 1085.38,-361.07 1081.42,-365.03 1077.46,-365.03"/>
<text xml:space="preserve" text-anchor="middle" x="912.38" y="-347.73" font-family="Arial" font-size="14.00" fill="#c6c5fe">domain/factories/createEmptyDailyRecordAggregate.ts</text>
</g>
<!-- app/dailyRecordService.ts&#45;&gt;domain/factories/createEmptyDailyRecordAggregate.ts -->
<g id="edge4" class="edge">
<title>app/dailyRecordService.ts&#45;&gt;domain/factories/createEmptyDailyRecordAggregate.ts</title>
<path fill="none" stroke="#757575" d="M665.86,-336.1C685.12,-337.44 706.28,-338.91 727.85,-340.41"/>
<polygon fill="#757575" stroke="#757575" points="727.43,-343.89 737.65,-341.09 727.91,-336.9 727.43,-343.89"/>
</g>
<!-- domain/normalizers/normalizeDailyRecordAggregate.ts -->
<g id="node7" class="node">
<title>domain/normalizers/normalizeDailyRecordAggregate.ts</title>
<path fill="none" stroke="#c6c5fe" d="M1078.58,-319.03C1078.58,-319.03 746.17,-319.03 746.17,-319.03 742.21,-319.03 738.25,-315.07 738.25,-311.11 738.25,-311.11 738.25,-303.19 738.25,-303.19 738.25,-299.23 742.21,-295.28 746.17,-295.28 746.17,-295.28 1078.58,-295.28 1078.58,-295.28 1082.54,-295.28 1086.5,-299.23 1086.5,-303.19 1086.5,-303.19 1086.5,-311.11 1086.5,-311.11 1086.5,-315.07 1082.54,-319.03 1078.58,-319.03"/>
<text xml:space="preserve" text-anchor="middle" x="912.38" y="-301.73" font-family="Arial" font-size="14.00" fill="#c6c5fe">domain/normalizers/normalizeDailyRecordAggregate.ts</text>
</g>
<!-- app/dailyRecordService.ts&#45;&gt;domain/normalizers/normalizeDailyRecordAggregate.ts -->
<g id="edge5" class="edge">
<title>app/dailyRecordService.ts&#45;&gt;domain/normalizers/normalizeDailyRecordAggregate.ts</title>
<path fill="none" stroke="#757575" d="M665.86,-324.2C684.71,-322.89 705.37,-321.45 726.46,-319.99"/>
<polygon fill="#757575" stroke="#757575" points="726.62,-323.49 736.35,-319.3 726.14,-316.5 726.62,-323.49"/>
</g>
<!-- app/dailyRecordService.ts&#45;&gt;domain/type.ts -->
<g id="edge6" class="edge">
<title>app/dailyRecordService.ts&#45;&gt;domain/type.ts</title>
<path fill="none" stroke="#757575" d="M618.07,-317.81C649.86,-307.9 696.59,-294.33 738.25,-286.15 1040.02,-226.86 1126.21,-185.94 1428.75,-241.15 1455.16,-245.97 1483.44,-256.73 1504.88,-266.15"/>
<polygon fill="#757575" stroke="#757575" points="1503.19,-269.23 1513.74,-270.15 1506.07,-262.85 1503.19,-269.23"/>
</g>
<!-- ports/DailyRecordRepository.ts -->
<g id="node9" class="node">
<title>ports/DailyRecordRepository.ts</title>
<path fill="none" stroke="#c6c5fe" d="M1368.33,-434.03C1368.33,-434.03 1182.92,-434.03 1182.92,-434.03 1178.96,-434.03 1175,-430.07 1175,-426.11 1175,-426.11 1175,-418.19 1175,-418.19 1175,-414.23 1178.96,-410.28 1182.92,-410.28 1182.92,-410.28 1368.33,-410.28 1368.33,-410.28 1372.29,-410.28 1376.25,-414.23 1376.25,-418.19 1376.25,-418.19 1376.25,-426.11 1376.25,-426.11 1376.25,-430.07 1372.29,-434.03 1368.33,-434.03"/>
<text xml:space="preserve" text-anchor="middle" x="1275.62" y="-416.73" font-family="Arial" font-size="14.00" fill="#c6c5fe">ports/DailyRecordRepository.ts</text>
</g>
<!-- app/dailyRecordService.ts&#45;&gt;ports/DailyRecordRepository.ts -->
<g id="edge7" class="edge">
<title>app/dailyRecordService.ts&#45;&gt;ports/DailyRecordRepository.ts</title>
<path fill="none" stroke="#757575" d="M617.06,-342.49C648.83,-352.6 696.06,-366.46 738.25,-374.15 883.71,-400.67 1054.16,-412.74 1163.2,-418.1"/>
<polygon fill="#757575" stroke="#757575" points="1162.88,-421.58 1173.03,-418.57 1163.21,-414.59 1162.88,-421.58"/>
</g>
<!-- data/dailyRecordRepository.localStorage.ts&#45;&gt;domain/type.ts -->
<g id="edge13" class="edge">
<title>data/dailyRecordRepository.localStorage.ts&#45;&gt;domain/type.ts</title>
<path fill="none" stroke="#757575" d="M1049.59,-469.19C1179.95,-475.45 1365.78,-477.39 1428.75,-443.15 1484,-413.1 1517.67,-342.33 1531.97,-305.82"/>
<polygon fill="#757575" stroke="#757575" points="1535.16,-307.27 1535.4,-296.68 1528.61,-304.81 1535.16,-307.27"/>
</g>
<!-- data/dailyRecordRepository.localStorage.ts&#45;&gt;ports/DailyRecordRepository.ts -->
<g id="edge14" class="edge">
<title>data/dailyRecordRepository.localStorage.ts&#45;&gt;ports/DailyRecordRepository.ts</title>
<path fill="none" stroke="#757575" d="M1030.66,-447.81C1073.22,-443.34 1121.15,-438.29 1163.18,-433.87"/>
<polygon fill="#757575" stroke="#757575" points="1163.5,-437.36 1173.08,-432.83 1162.77,-430.4 1163.5,-437.36"/>
</g>
<!-- domain/storage/dailyRecordStorage.ts -->
<g id="node14" class="node">
<title>domain/storage/dailyRecordStorage.ts</title>
<path fill="none" stroke="#c6c5fe" d="M1390.83,-514.03C1390.83,-514.03 1160.42,-514.03 1160.42,-514.03 1156.46,-514.03 1152.5,-510.07 1152.5,-506.11 1152.5,-506.11 1152.5,-498.19 1152.5,-498.19 1152.5,-494.23 1156.46,-490.28 1160.42,-490.28 1160.42,-490.28 1390.83,-490.28 1390.83,-490.28 1394.79,-490.28 1398.75,-494.23 1398.75,-498.19 1398.75,-498.19 1398.75,-506.11 1398.75,-506.11 1398.75,-510.07 1394.79,-514.03 1390.83,-514.03"/>
<text xml:space="preserve" text-anchor="middle" x="1275.62" y="-496.73" font-family="Arial" font-size="14.00" fill="#c6c5fe">domain/storage/dailyRecordStorage.ts</text>
</g>
<!-- data/dailyRecordRepository.localStorage.ts&#45;&gt;domain/storage/dailyRecordStorage.ts -->
<g id="edge12" class="edge">
<title>data/dailyRecordRepository.localStorage.ts&#45;&gt;domain/storage/dailyRecordStorage.ts</title>
<path fill="none" stroke="#757575" d="M1019.81,-472.52C1062.89,-477.53 1112.78,-483.33 1156.94,-488.47"/>
<polygon fill="#757575" stroke="#757575" points="1156.49,-491.94 1166.83,-489.62 1157.3,-484.99 1156.49,-491.94"/>
</g>
<!-- domain/factories/createEmptyDailyRecordAggregate.ts&#45;&gt;domain/type.ts -->
<g id="edge17" class="edge">
<title>domain/factories/createEmptyDailyRecordAggregate.ts&#45;&gt;domain/type.ts</title>
<path fill="none" stroke="#757575" d="M1006.05,-365.51C1110.71,-376.36 1285.15,-385.03 1428.75,-346.15 1461.08,-337.4 1493.95,-317.08 1515.49,-301.86"/>
<polygon fill="#757575" stroke="#757575" points="1517.28,-304.89 1523.32,-296.18 1513.17,-299.22 1517.28,-304.89"/>
</g>
<!-- domain/normalizers/normalizeDailyRecordAggregate.ts&#45;&gt;domain/type.ts -->
<g id="edge22" class="edge">
<title>domain/normalizers/normalizeDailyRecordAggregate.ts&#45;&gt;domain/type.ts</title>
<path fill="none" stroke="#757575" d="M986.64,-319.49C1087.22,-334.21 1273.3,-353.52 1428.75,-325.15 1455.16,-320.33 1483.44,-309.57 1504.88,-300.15"/>
<polygon fill="#757575" stroke="#757575" points="1506.07,-303.45 1513.74,-296.15 1503.19,-297.07 1506.07,-303.45"/>
</g>
<!-- domain/normalizers/normalizeExerciseOrders.ts -->
<g id="node15" class="node">
<title>domain/normalizers/normalizeExerciseOrders.ts</title>
<path fill="none" stroke="#c6c5fe" d="M1420.83,-316.03C1420.83,-316.03 1130.42,-316.03 1130.42,-316.03 1126.46,-316.03 1122.5,-312.07 1122.5,-308.11 1122.5,-308.11 1122.5,-300.19 1122.5,-300.19 1122.5,-296.23 1126.46,-292.28 1130.42,-292.28 1130.42,-292.28 1420.83,-292.28 1420.83,-292.28 1424.79,-292.28 1428.75,-296.23 1428.75,-300.19 1428.75,-300.19 1428.75,-308.11 1428.75,-308.11 1428.75,-312.07 1424.79,-316.03 1420.83,-316.03"/>
<text xml:space="preserve" text-anchor="middle" x="1275.62" y="-298.73" font-family="Arial" font-size="14.00" fill="#c6c5fe">domain/normalizers/normalizeExerciseOrders.ts</text>
</g>
<!-- domain/normalizers/normalizeDailyRecordAggregate.ts&#45;&gt;domain/normalizers/normalizeExerciseOrders.ts -->
<g id="edge20" class="edge">
<title>domain/normalizers/normalizeDailyRecordAggregate.ts&#45;&gt;domain/normalizers/normalizeExerciseOrders.ts</title>
<path fill="none" stroke="#757575" d="M1086.86,-305.71C1094.76,-305.64 1102.68,-305.58 1110.55,-305.51"/>
<polygon fill="#757575" stroke="#757575" points="1110.57,-309.01 1120.54,-305.43 1110.52,-302.01 1110.57,-309.01"/>
</g>
<!-- domain/normalizers/normalizeWeightOrders.ts -->
<g id="node16" class="node">
<title>domain/normalizers/normalizeWeightOrders.ts</title>
<path fill="none" stroke="#c6c5fe" d="M1415.96,-274.03C1415.96,-274.03 1135.29,-274.03 1135.29,-274.03 1131.33,-274.03 1127.38,-270.07 1127.38,-266.11 1127.38,-266.11 1127.38,-258.19 1127.38,-258.19 1127.38,-254.23 1131.33,-250.28 1135.29,-250.28 1135.29,-250.28 1415.96,-250.28 1415.96,-250.28 1419.92,-250.28 1423.88,-254.23 1423.88,-258.19 1423.88,-258.19 1423.88,-266.11 1423.88,-266.11 1423.88,-270.07 1419.92,-274.03 1415.96,-274.03"/>
<text xml:space="preserve" text-anchor="middle" x="1275.62" y="-256.73" font-family="Arial" font-size="14.00" fill="#c6c5fe">domain/normalizers/normalizeWeightOrders.ts</text>
</g>
<!-- domain/normalizers/normalizeDailyRecordAggregate.ts&#45;&gt;domain/normalizers/normalizeWeightOrders.ts -->
<g id="edge21" class="edge">
<title>domain/normalizers/normalizeDailyRecordAggregate.ts&#45;&gt;domain/normalizers/normalizeWeightOrders.ts</title>
<path fill="none" stroke="#757575" d="M1012.57,-294.79C1059.56,-288.94 1115.85,-281.93 1164.2,-275.91"/>
<polygon fill="#757575" stroke="#757575" points="1164.35,-279.41 1173.84,-274.7 1163.48,-272.47 1164.35,-279.41"/>
</g>
<!-- ports/DailyRecordRepository.ts&#45;&gt;domain/type.ts -->
<g id="edge29" class="edge">
<title>ports/DailyRecordRepository.ts&#45;&gt;domain/type.ts</title>
<path fill="none" stroke="#757575" d="M1376.52,-414.24C1394.56,-410.29 1412.72,-404.52 1428.75,-396.15 1470.73,-374.23 1506.53,-330.74 1525.49,-304.57"/>
<polygon fill="#757575" stroke="#757575" points="1528.14,-306.9 1531.04,-296.71 1522.42,-302.86 1528.14,-306.9"/>
</g>
<!-- data/localStorageHistory.ts&#45;&gt;domain/DailyRecord.ts -->
<g id="edge15" class="edge">
<title>data/localStorageHistory.ts&#45;&gt;domain/DailyRecord.ts</title>
<path fill="none" stroke="#757575" d="M1000.93,-667.44C1104.96,-675.72 1282.83,-681.11 1428.75,-641.15 1460.3,-632.51 1492.67,-613.37 1514.31,-598.82"/>
<polygon fill="#757575" stroke="#757575" points="1516.25,-601.73 1522.48,-593.17 1512.27,-595.98 1516.25,-601.73"/>
</g>
<!-- data/localStorageHistory.ts&#45;&gt;domain/history.ts -->
<g id="edge16" class="edge">
<title>data/localStorageHistory.ts&#45;&gt;domain/history.ts</title>
<path fill="none" stroke="#757575" d="M1000.82,-648.95C1063.47,-642.36 1146.7,-633.61 1204.89,-627.49"/>
<polygon fill="#757575" stroke="#757575" points="1205.1,-630.98 1214.68,-626.46 1204.37,-624.02 1205.1,-630.98"/>
</g>
<!-- domain/formatDailyRecord.ts&#45;&gt;domain/DailyRecord.ts -->
<g id="edge18" class="edge">
<title>domain/formatDailyRecord.ts&#45;&gt;domain/DailyRecord.ts</title>
<path fill="none" stroke="#757575" d="M1008.51,-542.82C1112.04,-546.22 1282.39,-553.27 1428.75,-566.15 1436.68,-566.85 1444.92,-567.68 1453.16,-568.59"/>
<polygon fill="#757575" stroke="#757575" points="1452.54,-572.04 1462.88,-569.69 1453.34,-565.08 1452.54,-572.04"/>
</g>
<!-- domain/history.ts&#45;&gt;domain/DailyRecord.ts -->
<g id="edge19" class="edge">
<title>domain/history.ts&#45;&gt;domain/DailyRecord.ts</title>
<path fill="none" stroke="#757575" d="M1335.08,-611.27C1369.84,-605.99 1414.58,-599.2 1453.38,-593.31"/>
<polygon fill="#757575" stroke="#757575" points="1453.82,-596.78 1463.19,-591.82 1452.77,-589.86 1453.82,-596.78"/>
</g>
<!-- domain/storage/dailyRecordStorage.ts&#45;&gt;domain/type.ts -->
<g id="edge26" class="edge">
<title>domain/storage/dailyRecordStorage.ts&#45;&gt;domain/type.ts</title>
<path fill="none" stroke="#757575" d="M1399.22,-491.23C1409.71,-487.37 1419.74,-482.43 1428.75,-476.15 1489.27,-433.98 1521.36,-347.52 1533.79,-306.17"/>
<polygon fill="#757575" stroke="#757575" points="1537.16,-307.14 1536.55,-296.56 1530.43,-305.21 1537.16,-307.14"/>
</g>
<!-- domain/storage/dailyRecordStorage.ts&#45;&gt;domain/DailyRecord.ts -->
<g id="edge25" class="edge">
<title>domain/storage/dailyRecordStorage.ts&#45;&gt;domain/DailyRecord.ts</title>
<path fill="none" stroke="#757575" d="M1372.5,-514.51C1391.37,-518.07 1410.85,-522.55 1428.75,-528.15 1456.73,-536.9 1486.74,-551.26 1508.54,-562.67"/>
<polygon fill="#757575" stroke="#757575" points="1506.73,-565.67 1517.2,-567.28 1510.02,-559.49 1506.73,-565.67"/>
</g>
<!-- domain/normalizers/normalizeExerciseOrders.ts&#45;&gt;domain/type.ts -->
<g id="edge23" class="edge">
<title>domain/normalizers/normalizeExerciseOrders.ts&#45;&gt;domain/type.ts</title>
<path fill="none" stroke="#757575" d="M1429.07,-292C1445.85,-290.66 1462.18,-289.36 1476.91,-288.18"/>
<polygon fill="#757575" stroke="#757575" points="1477.17,-291.67 1486.86,-287.39 1476.61,-284.69 1477.17,-291.67"/>
</g>
<!-- domain/normalizers/normalizeWeightOrders.ts&#45;&gt;domain/type.ts -->
<g id="edge24" class="edge">
<title>domain/normalizers/normalizeWeightOrders.ts&#45;&gt;domain/type.ts</title>
<path fill="none" stroke="#757575" d="M1424.1,-273.91C1442.64,-275.39 1460.75,-276.83 1476.94,-278.12"/>
<polygon fill="#757575" stroke="#757575" points="1476.62,-281.61 1486.87,-278.91 1477.18,-274.63 1476.62,-281.61"/>
</g>
<!-- index.css -->
<g id="node17" class="node">
<title>index.css</title>
<path fill="none" stroke="#cfffac" d="M188.33,-250.03C188.33,-250.03 131.92,-250.03 131.92,-250.03 127.96,-250.03 124,-246.07 124,-242.11 124,-242.11 124,-234.19 124,-234.19 124,-230.23 127.96,-226.28 131.92,-226.28 131.92,-226.28 188.33,-226.28 188.33,-226.28 192.29,-226.28 196.25,-230.23 196.25,-234.19 196.25,-234.19 196.25,-242.11 196.25,-242.11 196.25,-246.07 192.29,-250.03 188.33,-250.03"/>
<text xml:space="preserve" text-anchor="middle" x="160.12" y="-232.73" font-family="Arial" font-size="14.00" fill="#cfffac">index.css</text>
</g>
<!-- main.tsx -->
<g id="node18" class="node">
<title>main.tsx</title>
<path fill="none" stroke="#c6c5fe" d="M69.58,-271.03C69.58,-271.03 18.42,-271.03 18.42,-271.03 14.46,-271.03 10.5,-267.07 10.5,-263.11 10.5,-263.11 10.5,-255.19 10.5,-255.19 10.5,-251.23 14.46,-247.28 18.42,-247.28 18.42,-247.28 69.58,-247.28 69.58,-247.28 73.54,-247.28 77.5,-251.23 77.5,-255.19 77.5,-255.19 77.5,-263.11 77.5,-263.11 77.5,-267.07 73.54,-271.03 69.58,-271.03"/>
<text xml:space="preserve" text-anchor="middle" x="44" y="-253.73" font-family="Arial" font-size="14.00" fill="#c6c5fe">main.tsx</text>
</g>
<!-- main.tsx&#45;&gt;App.tsx -->
<g id="edge27" class="edge">
<title>main.tsx&#45;&gt;App.tsx</title>
<path fill="none" stroke="#757575" d="M77.7,-265.17C90.24,-267.47 104.7,-270.14 117.92,-272.57"/>
<polygon fill="#757575" stroke="#757575" points="117.19,-275.99 127.66,-274.36 118.46,-269.11 117.19,-275.99"/>
</g>
<!-- main.tsx&#45;&gt;index.css -->
<g id="edge28" class="edge">
<title>main.tsx&#45;&gt;index.css</title>
<path fill="none" stroke="#757575" d="M77.7,-253.13C88.59,-251.13 100.92,-248.86 112.64,-246.7"/>
<polygon fill="#757575" stroke="#757575" points="112.93,-250.21 122.13,-244.96 111.66,-243.32 112.93,-250.21"/>
</g>
<!-- ui/exercise/ExerciseSessionsEditor.tsx&#45;&gt;domain/type.ts -->
<g id="edge35" class="edge">
<title>ui/exercise/ExerciseSessionsEditor.tsx&#45;&gt;domain/type.ts</title>
<path fill="none" stroke="#757575" d="M702.68,-138.53C905.72,-127.75 1302.06,-114.98 1428.75,-170.15 1472.62,-189.25 1508.2,-234.5 1526.52,-261.59"/>
<polygon fill="#757575" stroke="#757575" points="1523.45,-263.28 1531.85,-269.72 1529.3,-259.44 1523.45,-263.28"/>
</g>
<!-- ui/weights/WeightEditor.tsx&#45;&gt;domain/type.ts -->
<g id="edge36" class="edge">
<title>ui/weights/WeightEditor.tsx&#45;&gt;domain/type.ts</title>
<path fill="none" stroke="#757575" d="M667.95,-102.01C871.46,-97.69 1363,-91.07 1428.75,-126.15 1483.27,-155.24 1517.09,-224.26 1531.65,-260.32"/>
<polygon fill="#757575" stroke="#757575" points="1528.28,-261.31 1535.16,-269.37 1534.81,-258.78 1528.28,-261.31"/>
</g>
<!-- ui/wellness/WellnessEditor.tsx&#45;&gt;domain/type.ts -->
<g id="edge37" class="edge">
<title>ui/wellness/WellnessEditor.tsx&#45;&gt;domain/type.ts</title>
<path fill="none" stroke="#757575" d="M626.23,-49.82C761.13,-16.53 1162.39,62.46 1428.75,-96.15 1490.65,-133.01 1522.07,-218.74 1534.06,-260.06"/>
<polygon fill="#757575" stroke="#757575" points="1530.68,-260.97 1536.71,-269.68 1537.43,-259.11 1530.68,-260.97"/>
</g>
<!-- vite&#45;env.d.ts -->
<g id="node22" class="node">
<title>vite&#45;env.d.ts</title>
<path fill="none" stroke="#cfffac" d="M80.08,-313.03C80.08,-313.03 7.92,-313.03 7.92,-313.03 3.96,-313.03 0,-309.07 0,-305.11 0,-305.11 0,-297.19 0,-297.19 0,-293.23 3.96,-289.28 7.92,-289.28 7.92,-289.28 80.08,-289.28 80.08,-289.28 84.04,-289.28 88,-293.23 88,-297.19 88,-297.19 88,-305.11 88,-305.11 88,-309.07 84.04,-313.03 80.08,-313.03"/>
<text xml:space="preserve" text-anchor="middle" x="44" y="-295.73" font-family="Arial" font-size="14.00" fill="#cfffac">vite&#45;env.d.ts</text>
</g>
</g>
</svg>
